<svg width="80" height="80" viewBox="0 0 80 80" fill="none" xmlns="http://www.w3.org/2000/svg">
<g clip-path="url(#clip0_138_1569)">
<rect width="80" height="80" fill="white"/>
<rect width="1000" height="1000" fill="#23578C"/>
<path fill-rule="evenodd" clip-rule="evenodd" d="M64.0457 39.4458V36.5879L63.1895 36.6343C62.9062 34.6583 62.3702 32.7337 61.5851 30.883C61.3571 30.3455 61.1099 29.8186 60.8442 29.3027C63.9611 30.6071 64.4827 34.929 64.4827 34.929H67.3017L66.2494 29.2381C68.5747 32.3389 69.8624 35.8213 69.9778 39.4458H64.0457ZM61.2619 55.6275C58.2629 57.8614 54.7392 59.565 50.8961 60.6753C52.979 59.583 54.8787 58.1867 56.5618 56.5083C57.7923 55.2814 58.8713 53.9387 59.7909 52.4937H61.261V51.6346C61.261 51.6346 60.8818 51.6345 60.3631 51.5455C60.8168 50.7508 61.2249 49.9281 61.5851 49.0787C62.5922 46.7044 63.1899 44.2085 63.3693 41.6386L64.0457 41.6755V40.5158H69.9778C69.7963 46.2149 66.7177 51.5631 61.2619 55.6275ZM51.7969 56.4306C52.6449 55.2246 53.39 53.9082 54.0265 52.4934L58.3675 52.4937C55.7173 56.3543 51.8774 59.3417 47.379 60.9261C49.0169 59.7835 50.4998 58.2754 51.7969 56.4306ZM43.7012 61.3624C44.7492 60.161 45.6844 58.4564 46.4811 56.2967C46.9132 55.1249 47.2933 53.8502 47.6181 52.4933L52.7271 52.4934C50.5763 57.0131 47.2955 60.3361 43.475 61.6121C43.5509 61.5315 43.6263 61.4486 43.7012 61.3624ZM40.5227 62.1271V52.4936L45.9754 52.4937V51.6346C45.9754 51.6346 42.1711 51.6346 42.1711 48.8017V40.5158H47.7978C47.7482 46.3353 46.8921 51.7785 45.3741 55.8941C44.0353 59.524 42.2926 61.7482 40.5227 62.1271ZM34.5936 55.8941C34.2056 54.8419 33.8609 53.7029 33.5618 52.4934L39.445 52.4936V62.1271C37.6753 61.7482 35.9325 59.524 34.5936 55.8941ZM24.5551 40.5158H30.9912C31.0243 44.4726 31.4248 48.2664 32.1487 51.611C31.8997 51.6346 31.7435 51.6346 31.7435 51.6346V52.4933H32.3497C32.6745 53.8502 33.0545 55.1249 33.4868 56.2967C34.2833 58.4564 35.2186 60.161 36.2665 61.3624C36.3414 61.4486 36.4169 61.5315 36.4926 61.6121C29.7748 59.3684 24.7249 50.7959 24.5551 40.5158ZM17.726 40.5158H23.3762C23.4225 43.4596 23.852 46.3173 24.655 49.0172C25.48 51.7915 26.6629 54.2856 28.1708 56.4306C29.4679 58.2754 30.9509 59.7836 32.5887 60.9261C24.0962 57.9351 17.9507 49.9433 17.726 40.5158ZM18.7058 55.6275C13.2501 51.5631 10.1714 46.2149 9.98991 40.5158H16.5467C16.6129 43.4819 17.2295 46.36 18.3827 49.0787C19.5632 51.8621 21.2534 54.3618 23.406 56.5083C25.0891 58.1867 26.9887 59.583 29.0716 60.6753C25.2286 59.565 21.7047 57.8614 18.7058 55.6275ZM18.7058 24.3343C21.7047 22.1003 25.2286 20.3967 29.0716 19.2864C26.9887 20.3785 25.0891 21.7749 23.406 23.4533C21.2534 25.5999 19.5632 28.0995 18.3827 30.883C17.2295 33.6016 16.6129 36.4798 16.5467 39.4458H9.98991C10.1714 33.7468 13.2501 28.3985 18.7058 24.3343ZM28.1708 23.5312C26.6629 25.676 25.48 28.17 24.655 30.9444C23.852 33.6445 23.4225 36.502 23.3762 39.4458H17.726C17.9507 30.0182 24.0962 22.0265 32.5888 19.0356C30.951 20.1781 29.4679 21.6863 28.1708 23.5312ZM36.2665 18.5992C35.2186 19.8008 34.2833 21.5052 33.4868 23.665C33.0546 24.8367 32.6746 26.1113 32.3498 27.4679L31.7435 27.4678V28.3272C31.7435 28.3272 31.8996 28.3272 32.1487 28.3507C31.4248 31.6954 31.0243 35.4891 30.9912 39.4458H24.5551C24.7249 29.1658 29.7748 20.5931 36.4926 18.3496C36.4169 18.4301 36.3414 18.5132 36.2665 18.5992ZM35.5478 39.4458H32.17C32.2031 35.5575 32.5964 31.8374 33.3064 28.569C34.356 28.8764 35.5478 29.5744 35.5478 31.1601V39.4458ZM32.17 40.5158H35.5478V48.8017C35.5478 50.3873 34.356 51.0853 33.3064 51.3928C32.5964 48.1243 32.2031 44.4041 32.17 40.5158ZM39.4451 17.8346V27.4682L33.5619 27.4679C33.8611 26.2584 34.2057 25.1196 34.5937 24.0674C35.9325 20.4375 37.6753 18.2134 39.4451 17.8346ZM45.3741 24.0674C46.8921 28.1831 47.7482 33.6262 47.7978 39.4458H42.1711V31.1601C42.1711 28.3272 45.9754 28.3272 45.9754 28.3272V27.4685L40.5227 27.4682V17.8346C42.2926 18.2135 44.0353 20.4375 45.3741 24.0674ZM52.7271 27.4681L47.618 27.4678C47.2931 26.1113 46.9132 24.8367 46.4811 23.665C45.6845 21.5052 44.7492 19.8008 43.7013 18.5992C43.6264 18.5132 43.551 18.4301 43.4752 18.3496C47.2955 19.6255 50.5763 22.9484 52.7271 27.4681ZM58.3677 27.4682L54.0264 27.4681C53.3899 26.0535 52.6449 24.7371 51.7969 23.5312C50.4998 21.6863 49.0168 20.1781 47.379 19.0356C51.8776 20.62 55.7175 23.6076 58.3677 27.4682ZM57.4568 36.9452V31.1601C57.4568 29.3739 57.5531 28.5582 59.2445 28.8522C60.6285 31.2252 61.5841 33.8761 62.0053 36.6986L57.4568 36.9452ZM57.4568 41.3182L62.1913 41.5749C61.9414 45.0711 60.8763 48.3461 59.1848 51.2115C58.2952 50.8371 57.4568 50.1316 57.4568 48.8017V41.3182ZM50.8335 40.5158V48.8017C50.8335 50.7973 48.9457 51.387 47.8298 51.5614C48.5469 48.229 48.9436 44.453 48.9766 40.5158H50.8335ZM50.8335 39.4458H48.9766C48.9436 35.5087 48.5469 31.7328 47.8298 28.4003C48.9457 28.5747 50.8335 29.1644 50.8335 31.1601V39.4458ZM61.2619 24.3343C62.5708 25.3094 63.7424 26.3585 64.7705 27.4685L59.7911 27.4682C58.8716 26.0233 57.7924 24.6805 56.5618 23.4533C54.8787 21.775 52.979 20.3785 50.8961 19.2864C54.7392 20.3967 58.2629 22.1003 61.2619 24.3343ZM71.1571 39.4458C71.0686 36.4566 70.2384 33.5582 68.6853 30.8227C67.1041 28.038 64.8446 25.54 61.9695 23.3981C59.1068 21.2656 55.7761 19.5922 52.07 18.4244C48.4051 17.2696 44.5229 16.6601 40.5227 16.6098V11.68H39.445V16.6098C35.4449 16.6601 31.5628 17.2696 27.8978 18.4244C24.1916 19.5922 20.861 21.2656 17.9983 23.3981C15.1232 25.54 12.8636 28.038 11.2825 30.8227C9.72937 33.5582 8.8992 36.4566 8.81069 39.4458H0V40.5158H8.81069C8.8992 43.5051 9.72937 46.4034 11.2825 49.1389C12.8636 51.9238 15.1232 54.4217 17.9983 56.5636C20.861 58.6962 24.1916 60.3695 27.8978 61.5373C31.5628 62.6919 35.4449 63.3015 39.445 63.3519V68.2817H40.5227V63.3519C44.5229 63.3015 48.4051 62.6919 52.07 61.5373C55.7761 60.3695 59.1068 58.6962 61.9695 56.5636C64.8446 54.4217 67.1041 51.9238 68.6853 49.1389C70.2384 46.4034 71.0686 43.5051 71.1571 40.5158H79.9677V39.4458H71.1571Z" fill="white"/>
</g>
<defs>
<clipPath id="clip0_138_1569">
<rect width="80" height="80" fill="white"/>
</clipPath>
</defs>
</svg>
