<svg width="162" height="161" viewBox="0 0 162 161" fill="none" xmlns="http://www.w3.org/2000/svg">
<path d="M137.426 23.5779C122.329 8.48123 101.854 0 80.5039 0C59.154 0 38.6785 8.48123 23.5818 23.5779C8.48513 38.6746 0.00390625 59.1501 0.00390625 80.5C0.00390625 101.85 8.48513 122.325 23.5818 137.422C38.6785 152.519 59.154 161 80.5039 161C101.854 161 122.329 152.519 137.426 137.422C152.523 122.325 161.004 101.85 161.004 80.5C161.004 59.1501 152.523 38.6746 137.426 23.5779ZM80.5039 150.21C42.0663 150.21 10.7935 118.938 10.7935 80.5C10.7935 42.0617 42.0656 10.7896 80.5039 10.7896C118.942 10.7896 150.214 42.0617 150.214 80.5C150.214 118.938 118.942 150.21 80.5039 150.21Z" fill="white" fill-opacity="0.9"/>
<path d="M68.3742 97.3782L43.6214 72.6257L35.9922 80.2549L68.3742 112.637L124.851 56.1609L117.221 48.5317L68.3742 97.3782Z" fill="white" fill-opacity="0.9"/>
</svg>
