<svg width="145" height="144" viewBox="0 0 145 144" fill="none" xmlns="http://www.w3.org/2000/svg">
<path d="M27.206 79.6152C23.0376 79.6152 19.6271 83.002 19.6271 87.1415C19.6271 91.281 23.0376 94.6678 27.206 94.6678C31.3744 94.6678 34.785 91.281 34.785 87.1415C34.785 83.002 31.3744 79.6152 27.206 79.6152ZM27.206 109.72C23.0376 109.72 19.6271 113.107 19.6271 117.247C19.6271 121.386 23.0376 124.773 27.206 124.773C31.3744 124.773 34.785 121.386 34.785 117.247C34.785 113.107 31.3744 109.72 27.206 109.72ZM27.206 49.5099C23.0376 49.5099 19.6271 52.8968 19.6271 57.0362C19.6271 61.1757 23.0376 64.5626 27.206 64.5626C31.3744 64.5626 34.785 61.1757 34.785 57.0362C34.785 52.8968 31.3744 49.5099 27.206 49.5099ZM4.46916 53.2731C2.34706 53.2731 0.679688 54.9289 0.679688 57.0362C0.679688 59.1436 2.34706 60.7994 4.46916 60.7994C6.59127 60.7994 8.25864 59.1436 8.25864 57.0362C8.25864 54.9289 6.59127 53.2731 4.46916 53.2731ZM27.206 19.4047C23.0376 19.4047 19.6271 22.7915 19.6271 26.931C19.6271 31.0704 23.0376 34.4573 27.206 34.4573C31.3744 34.4573 34.785 31.0704 34.785 26.931C34.785 22.7915 31.3744 19.4047 27.206 19.4047ZM140.89 60.7994C143.012 60.7994 144.68 59.1436 144.68 57.0362C144.68 54.9289 143.012 53.2731 140.89 53.2731C138.768 53.2731 137.101 54.9289 137.101 57.0362C137.101 59.1436 138.768 60.7994 140.89 60.7994ZM87.8376 34.4573C92.006 34.4573 95.4165 31.0704 95.4165 26.931C95.4165 22.7915 92.006 19.4047 87.8376 19.4047C83.6692 19.4047 80.2586 22.7915 80.2586 26.931C80.2586 31.0704 83.6692 34.4573 87.8376 34.4573ZM87.8376 8.11518C89.9597 8.11518 91.6271 6.45939 91.6271 4.35203C91.6271 2.24466 89.9597 0.588867 87.8376 0.588867C85.7155 0.588867 84.0481 2.24466 84.0481 4.35203C84.0481 6.45939 85.7155 8.11518 87.8376 8.11518ZM4.46916 83.3783C2.34706 83.3783 0.679688 85.0341 0.679688 87.1415C0.679688 89.2489 2.34706 90.9047 4.46916 90.9047C6.59127 90.9047 8.25864 89.2489 8.25864 87.1415C8.25864 85.0341 6.59127 83.3783 4.46916 83.3783ZM57.5218 136.063C55.3997 136.063 53.7323 137.718 53.7323 139.826C53.7323 141.933 55.3997 143.589 57.5218 143.589C59.6439 143.589 61.3113 141.933 61.3113 139.826C61.3113 137.718 59.6439 136.063 57.5218 136.063ZM57.5218 8.11518C59.6439 8.11518 61.3113 6.45939 61.3113 4.35203C61.3113 2.24466 59.6439 0.588867 57.5218 0.588867C55.3997 0.588867 53.7323 2.24466 53.7323 4.35203C53.7323 6.45939 55.3997 8.11518 57.5218 8.11518ZM57.5218 34.4573C61.6902 34.4573 65.1007 31.0704 65.1007 26.931C65.1007 22.7915 61.6902 19.4047 57.5218 19.4047C53.3534 19.4047 49.9428 22.7915 49.9428 26.931C49.9428 31.0704 53.3534 34.4573 57.5218 34.4573ZM57.5218 75.852C51.2313 75.852 46.1534 80.8947 46.1534 87.1415C46.1534 93.3883 51.2313 98.431 57.5218 98.431C63.8123 98.431 68.8902 93.3883 68.8902 87.1415C68.8902 80.8947 63.8123 75.852 57.5218 75.852ZM118.153 79.6152C113.985 79.6152 110.574 83.002 110.574 87.1415C110.574 91.281 113.985 94.6678 118.153 94.6678C122.322 94.6678 125.732 91.281 125.732 87.1415C125.732 83.002 122.322 79.6152 118.153 79.6152ZM118.153 109.72C113.985 109.72 110.574 113.107 110.574 117.247C110.574 121.386 113.985 124.773 118.153 124.773C122.322 124.773 125.732 121.386 125.732 117.247C125.732 113.107 122.322 109.72 118.153 109.72ZM118.153 49.5099C113.985 49.5099 110.574 52.8968 110.574 57.0362C110.574 61.1757 113.985 64.5626 118.153 64.5626C122.322 64.5626 125.732 61.1757 125.732 57.0362C125.732 52.8968 122.322 49.5099 118.153 49.5099ZM118.153 19.4047C113.985 19.4047 110.574 22.7915 110.574 26.931C110.574 31.0704 113.985 34.4573 118.153 34.4573C122.322 34.4573 125.732 31.0704 125.732 26.931C125.732 22.7915 122.322 19.4047 118.153 19.4047ZM140.89 83.3783C138.768 83.3783 137.101 85.0341 137.101 87.1415C137.101 89.2489 138.768 90.9047 140.89 90.9047C143.012 90.9047 144.68 89.2489 144.68 87.1415C144.68 85.0341 143.012 83.3783 140.89 83.3783ZM87.8376 109.72C83.6692 109.72 80.2586 113.107 80.2586 117.247C80.2586 121.386 83.6692 124.773 87.8376 124.773C92.006 124.773 95.4165 121.386 95.4165 117.247C95.4165 113.107 92.006 109.72 87.8376 109.72ZM87.8376 136.063C85.7155 136.063 84.0481 137.718 84.0481 139.826C84.0481 141.933 85.7155 143.589 87.8376 143.589C89.9597 143.589 91.6271 141.933 91.6271 139.826C91.6271 137.718 89.9597 136.063 87.8376 136.063ZM57.5218 45.7468C51.2313 45.7468 46.1534 50.7894 46.1534 57.0362C46.1534 63.2831 51.2313 68.3257 57.5218 68.3257C63.8123 68.3257 68.8902 63.2831 68.8902 57.0362C68.8902 50.7894 63.8123 45.7468 57.5218 45.7468ZM57.5218 109.72C53.3534 109.72 49.9428 113.107 49.9428 117.247C49.9428 121.386 53.3534 124.773 57.5218 124.773C61.6902 124.773 65.1007 121.386 65.1007 117.247C65.1007 113.107 61.6902 109.72 57.5218 109.72ZM87.8376 75.852C81.5471 75.852 76.4692 80.8947 76.4692 87.1415C76.4692 93.3883 81.5471 98.431 87.8376 98.431C94.1281 98.431 99.206 93.3883 99.206 87.1415C99.206 80.8947 94.1281 75.852 87.8376 75.852ZM87.8376 45.7468C81.5471 45.7468 76.4692 50.7894 76.4692 57.0362C76.4692 63.2831 81.5471 68.3257 87.8376 68.3257C94.1281 68.3257 99.206 63.2831 99.206 57.0362C99.206 50.7894 94.1281 45.7468 87.8376 45.7468Z" fill="white"/>
</svg>
