<svg width="20" height="3" viewBox="0 0 20 3" fill="none" xmlns="http://www.w3.org/2000/svg">
<path d="M18.75 0.248779H1.25C0.918479 0.248779 0.600537 0.380118 0.366117 0.613901C0.131696 0.847684 0 1.16476 0 1.49538C0 1.826 0.131696 2.14308 0.366117 2.37686C0.600537 2.61065 0.918479 2.74198 1.25 2.74198C1.25 2.7306 1.25 2.74398 1.25 2.74198C1.58152 2.74198 18.75 2.74198 18.75 2.74198C18.75 2.73954 18.75 2.76444 18.75 2.74198C19.0815 2.74198 19.3995 2.61065 19.6339 2.37686C19.8683 2.14308 20 1.826 20 1.49538C20 1.16476 19.8683 0.847684 19.6339 0.613901C19.3995 0.380118 19.0815 0.248779 18.75 0.248779Z" fill="white"/>
</svg>
