<svg width="144" height="100" viewBox="0 0 144 100" fill="none" xmlns="http://www.w3.org/2000/svg">
<path d="M14.7947 52.1651H2.75391V0.566627H14.7947V52.1651Z" fill="white"/>
<path d="M59.5262 38.8139C59.8095 38.8139 60.0928 38.873 60.3761 38.991C60.6594 39.0854 60.9309 39.2625 61.1906 39.5222L65.9361 44.5156C63.8585 47.2307 61.2496 49.2847 58.1096 50.6777C54.9931 52.047 51.2983 52.7317 47.025 52.7317C43.1058 52.7317 39.588 52.0707 36.4715 50.7485C33.3787 49.4028 30.7462 47.5612 28.5742 45.2239C26.4257 42.863 24.773 40.077 23.6162 36.8662C22.4593 33.6317 21.8809 30.1257 21.8809 26.3482C21.8809 22.4998 22.5065 18.9702 23.7578 15.7593C25.0091 12.5248 26.768 9.7389 29.0345 7.40156C31.3011 5.06423 34.0161 3.2463 37.1798 1.94778C40.3435 0.64926 43.8259 0 47.627 0C49.563 0 51.3809 0.177071 53.0808 0.531213C54.8043 0.861744 56.4097 1.33393 57.8971 1.94778C59.3845 2.53802 60.7538 3.25811 62.0051 4.10804C63.2564 4.95798 64.3661 5.87875 65.3341 6.87035L61.2969 12.2887C61.0372 12.6193 60.7302 12.9262 60.3761 13.2095C60.022 13.4692 59.5262 13.599 58.8887 13.599C58.4637 13.599 58.0624 13.5046 57.6846 13.3157C57.3069 13.1269 56.9055 12.9026 56.4805 12.6429C56.0556 12.3595 55.5834 12.0644 55.064 11.7575C54.5682 11.427 53.9661 11.1319 53.2578 10.8722C52.5732 10.5888 51.7587 10.3527 50.8143 10.1639C49.8935 9.97499 48.8075 9.88056 47.5562 9.88056C45.573 9.88056 43.755 10.2465 42.1024 10.9784C40.4733 11.7103 39.0568 12.7845 37.8527 14.2011C36.6722 15.594 35.7514 17.3175 35.0904 19.3716C34.4529 21.402 34.1342 23.7275 34.1342 26.3482C34.1342 28.9924 34.4883 31.3416 35.1966 33.3956C35.9285 35.4496 36.9083 37.1849 38.136 38.6015C39.3873 39.9944 40.8393 41.0568 42.4919 41.7887C44.1446 42.5206 45.9153 42.8866 47.8041 42.8866C48.8901 42.8866 49.8817 42.8394 50.7789 42.7449C51.676 42.6269 52.5141 42.4498 53.2933 42.2137C54.0724 41.954 54.8043 41.6235 55.4889 41.2221C56.1736 40.7971 56.8701 40.2659 57.5784 39.6285C57.8617 39.3924 58.1686 39.2035 58.4991 39.0618C58.8297 38.8966 59.172 38.8139 59.5262 38.8139Z" fill="white"/>
<path d="M99.6698 11.0492C99.3156 11.6159 98.9379 12.0408 98.5365 12.3241C98.1588 12.6074 97.663 12.7491 97.0491 12.7491C96.5061 12.7491 95.9159 12.5838 95.2784 12.2533C94.6646 11.8992 93.9563 11.5096 93.1536 11.0846C92.3745 10.6597 91.4773 10.2819 90.4621 9.95139C89.4469 9.59724 88.29 9.42017 86.9915 9.42017C84.7486 9.42017 83.0723 9.90417 81.9627 10.8722C80.8767 11.8165 80.3336 13.1032 80.3336 14.7323C80.3336 15.7711 80.6642 16.6329 81.3252 17.3175C81.9863 18.0022 82.848 18.5924 83.9105 19.0882C84.9965 19.584 86.2242 20.0444 87.5936 20.4694C88.9865 20.8708 90.4031 21.3311 91.8433 21.8505C93.2834 22.3463 94.6882 22.9366 96.0575 23.6213C97.4505 24.3059 98.6782 25.1795 99.7406 26.2419C100.827 27.3043 101.7 28.6029 102.361 30.1375C103.022 31.6485 103.353 33.4782 103.353 35.6267C103.353 38.0112 102.94 40.2423 102.113 42.3199C101.287 44.3976 100.083 46.2155 98.5011 47.7737C96.9429 49.3083 95.0069 50.5242 92.6932 51.4214C90.4031 52.2949 87.7942 52.7317 84.8667 52.7317C83.2612 52.7317 81.6204 52.5665 79.9441 52.2359C78.2914 51.9054 76.686 51.445 75.1278 50.8548C73.5695 50.2409 72.1058 49.5208 70.7364 48.6945C69.3671 47.8682 68.1748 46.9474 67.1596 45.9322L70.701 40.3368C70.9843 39.9354 71.3503 39.6049 71.7988 39.3452C72.271 39.0618 72.7786 38.9202 73.3216 38.9202C74.0299 38.9202 74.7382 39.1445 75.4465 39.5931C76.1784 40.0416 76.9929 40.5374 77.8901 41.0805C78.8108 41.6235 79.8615 42.1193 81.0419 42.5678C82.2224 43.0164 83.6154 43.2407 85.2208 43.2407C87.3929 43.2407 89.0809 42.7685 90.285 41.8242C91.4891 40.8562 92.0911 39.3334 92.0911 37.2557C92.0911 36.0516 91.7606 35.0718 91.0996 34.3163C90.4385 33.5608 89.5649 32.9352 88.4789 32.4394C87.4165 31.9436 86.2006 31.5068 84.8312 31.1291C83.4619 30.7513 82.0571 30.3382 80.617 29.8896C79.1768 29.4174 77.772 28.8508 76.4027 28.1897C75.0333 27.505 73.8056 26.6197 72.7196 25.5336C71.6572 24.424 70.7954 23.0546 70.1344 21.4256C69.4733 19.7729 69.1428 17.7425 69.1428 15.3343C69.1428 13.3984 69.5323 11.5096 70.3114 9.66807C71.0905 7.82653 72.2356 6.18568 73.7466 4.7455C75.2576 3.30532 77.1109 2.16026 79.3066 1.31032C81.5023 0.436773 84.0167 0 86.8499 0C88.4317 0 89.9663 0.129852 91.4537 0.389557C92.9647 0.625651 94.3931 0.991597 95.7388 1.48739C97.0845 1.95959 98.3358 2.53802 99.4927 3.22269C100.673 3.88375 101.724 4.63926 102.645 5.4892L99.6698 11.0492Z" fill="white"/>
<path d="M122.421 9.77432V22.8421H140.057V32.0852H122.421V52.1651H110.38V0.566627H143.598V9.77432H122.421Z" fill="white"/>
<path d="M18.4717 73.379C18.3413 73.5963 18.1965 73.7629 18.0371 73.8788C17.8922 73.9802 17.7111 74.0309 17.4938 74.0309C17.2475 74.0309 16.9578 73.9078 16.6245 73.6615C16.2913 73.4152 15.8712 73.1472 15.3641 72.8574C14.8715 72.5532 14.2703 72.2779 13.5604 72.0316C12.865 71.7854 12.0175 71.6622 11.0178 71.6622C10.0761 71.6622 9.2431 71.7926 8.51872 72.0534C7.80883 72.2997 7.20759 72.6401 6.71501 73.0748C6.23692 73.5094 5.87473 74.0237 5.62844 74.6177C5.38215 75.1972 5.25901 75.8274 5.25901 76.5083C5.25901 77.3776 5.46908 78.102 5.88922 78.6815C6.32385 79.2465 6.88886 79.7318 7.58427 80.1375C8.29416 80.5431 9.09098 80.8981 9.97473 81.2023C10.873 81.4921 11.7857 81.7963 12.7129 82.115C13.6546 82.4338 14.5673 82.796 15.451 83.2016C16.3493 83.5928 17.1461 84.0926 17.8415 84.7011C18.5514 85.3096 19.1164 86.0557 19.5366 86.9394C19.9712 87.8232 20.1885 88.9097 20.1885 90.1991C20.1885 91.561 19.9567 92.8431 19.4931 94.0456C19.0295 95.2336 18.3486 96.2694 17.4503 97.1532C16.5666 98.0369 15.4728 98.7323 14.1689 99.2394C12.8795 99.7465 11.409 100 9.75741 100C7.72915 100 5.88922 99.6378 4.23763 98.9134C2.58604 98.1746 1.1735 97.1822 0 95.9362L1.21696 93.9369C1.33286 93.7776 1.47049 93.6472 1.62986 93.5458C1.80371 93.4299 1.99205 93.3719 2.19487 93.3719C2.38321 93.3719 2.59328 93.4516 2.82509 93.611C3.07138 93.7558 3.34664 93.9442 3.65088 94.176C3.95512 94.4078 4.30282 94.6613 4.69399 94.9366C5.08515 95.2118 5.52703 95.4654 6.01961 95.6972C6.52667 95.929 7.09893 96.1246 7.73639 96.2839C8.37385 96.4288 9.09098 96.5012 9.8878 96.5012C10.8874 96.5012 11.7784 96.3636 12.5608 96.0883C13.3431 95.8131 14.0023 95.4292 14.5383 94.9366C15.0889 94.4295 15.509 93.8283 15.7987 93.1329C16.0885 92.4375 16.2334 91.6624 16.2334 90.8076C16.2334 89.8659 16.0161 89.0981 15.5814 88.5041C15.1613 87.8956 14.6035 87.3885 13.9081 86.9829C13.2127 86.5772 12.4159 86.2368 11.5177 85.9615C10.6194 85.6717 9.70671 85.382 8.7795 85.0922C7.85229 84.788 6.93957 84.4403 6.04134 84.0491C5.14311 83.658 4.34629 83.1509 3.65088 82.5279C2.95547 81.905 2.39046 81.1299 1.95583 80.2027C1.53569 79.261 1.32562 78.102 1.32562 76.7256C1.32562 75.6246 1.53569 74.5597 1.95583 73.5311C2.39046 72.5025 3.01343 71.5898 3.82473 70.793C4.65053 69.9961 5.65742 69.3587 6.8454 68.8806C8.04787 68.4025 9.4242 68.1635 10.9744 68.1635C12.7129 68.1635 14.292 68.4387 15.7118 68.9892C17.1461 69.5398 18.4065 70.3366 19.4931 71.3797L18.4717 73.379Z" fill="white"/>
<path d="M39.8354 86.244C39.8354 85.3458 39.705 84.5272 39.4442 83.7884C39.198 83.035 38.8285 82.3903 38.3359 81.8543C37.8578 81.3037 37.2711 80.8836 36.5757 80.5938C35.8803 80.2896 35.0907 80.1375 34.207 80.1375C32.3526 80.1375 30.8821 80.6808 29.7955 81.7673C28.7234 82.8394 28.057 84.3316 27.7962 86.244H39.8354ZM42.9647 96.5664C42.4866 97.1459 41.9144 97.653 41.2479 98.0876C40.5815 98.5078 39.8644 98.8555 39.0965 99.1307C38.3432 99.406 37.5608 99.6088 36.7495 99.7392C35.9382 99.8841 35.1342 99.9565 34.3374 99.9565C32.8162 99.9565 31.4109 99.703 30.1215 99.1959C28.8465 98.6744 27.7382 97.921 26.7966 96.9359C25.8693 95.9362 25.145 94.7048 24.6234 93.2415C24.1019 91.7783 23.8411 90.0977 23.8411 88.1998C23.8411 86.6641 24.0729 85.2299 24.5365 83.897C25.0146 82.5641 25.6955 81.4124 26.5792 80.4417C27.463 79.4566 28.5423 78.6887 29.8172 78.1382C31.0921 77.5732 32.5264 77.2907 34.12 77.2907C35.4384 77.2907 36.6554 77.5152 37.7709 77.9643C38.901 78.399 39.8716 79.0364 40.6829 79.8767C41.5087 80.7025 42.1534 81.7311 42.617 82.9626C43.0806 84.1795 43.3124 85.5703 43.3124 87.135C43.3124 87.7435 43.2472 88.1491 43.1169 88.352C42.9865 88.5548 42.7402 88.6562 42.378 88.6562H27.6658C27.7093 90.047 27.8976 91.2567 28.2308 92.2853C28.5785 93.314 29.0566 94.176 29.6651 94.8714C30.2736 95.5523 30.998 96.0666 31.8382 96.4143C32.6785 96.7475 33.6202 96.9141 34.6633 96.9141C35.634 96.9141 36.467 96.8055 37.1624 96.5882C37.8723 96.3564 38.4808 96.1101 38.9879 95.8493C39.4949 95.5885 39.9151 95.3495 40.2483 95.1322C40.596 94.9004 40.893 94.7845 41.1393 94.7845C41.458 94.7845 41.7043 94.9076 41.8782 95.1539L42.9647 96.5664Z" fill="white"/>
<path d="M52.0624 67.6419V99.6523H48.1942V67.6419H52.0624Z" fill="white"/>
<path d="M73.0692 86.244C73.0692 85.3458 72.9388 84.5272 72.678 83.7884C72.4318 83.035 72.0623 82.3903 71.5697 81.8543C71.0917 81.3037 70.5049 80.8836 69.8095 80.5938C69.1141 80.2896 68.3245 80.1375 67.4408 80.1375C65.5864 80.1375 64.1159 80.6808 63.0293 81.7673C61.9572 82.8394 61.2908 84.3316 61.03 86.244H73.0692ZM76.1985 96.5664C75.7205 97.1459 75.1482 97.653 74.4818 98.0876C73.8153 98.5078 73.0982 98.8555 72.3303 99.1307C71.577 99.406 70.7947 99.6088 69.9834 99.7392C69.172 99.8841 68.368 99.9565 67.5712 99.9565C66.05 99.9565 64.6447 99.703 63.3553 99.1959C62.0804 98.6744 60.9721 97.921 60.0304 96.9359C59.1032 95.9362 58.3788 94.7048 57.8572 93.2415C57.3357 91.7783 57.0749 90.0977 57.0749 88.1998C57.0749 86.6641 57.3067 85.2299 57.7703 83.897C58.2484 82.5641 58.9293 81.4124 59.813 80.4417C60.6968 79.4566 61.7761 78.6887 63.051 78.1382C64.3259 77.5732 65.7602 77.2907 67.3539 77.2907C68.6722 77.2907 69.8892 77.5152 71.0047 77.9643C72.1348 78.399 73.1054 79.0364 73.9167 79.8767C74.7425 80.7025 75.3872 81.7311 75.8508 82.9626C76.3144 84.1795 76.5462 85.5703 76.5462 87.135C76.5462 87.7435 76.481 88.1491 76.3507 88.352C76.2203 88.5548 75.974 88.6562 75.6118 88.6562H60.8996C60.9431 90.047 61.1314 91.2567 61.4646 92.2853C61.8123 93.314 62.2904 94.176 62.8989 94.8714C63.5074 95.5523 64.2318 96.0666 65.0721 96.4143C65.9123 96.7475 66.854 96.9141 67.8971 96.9141C68.8678 96.9141 69.7008 96.8055 70.3962 96.5882C71.1061 96.3564 71.7146 96.1101 72.2217 95.8493C72.7288 95.5885 73.1489 95.3495 73.4821 95.1322C73.8298 94.9004 74.1268 94.7845 74.3731 94.7845C74.6918 94.7845 74.9381 94.9076 75.112 95.1539L76.1985 96.5664Z" fill="white"/>
<path d="M96.6183 81.55C96.5024 81.7094 96.3865 81.8325 96.2706 81.9194C96.1547 82.0064 95.9953 82.0498 95.7925 82.0498C95.5752 82.0498 95.3361 81.9629 95.0753 81.7891C94.8146 81.6007 94.4886 81.3979 94.0974 81.1806C93.7207 80.9633 93.2499 80.7677 92.6849 80.5938C92.1344 80.4055 91.4534 80.3113 90.6421 80.3113C89.5556 80.3113 88.5994 80.5069 87.7736 80.8981C86.9478 81.2748 86.2524 81.8253 85.6874 82.5497C85.1368 83.274 84.7167 84.1505 84.4269 85.1792C84.1517 86.2078 84.014 87.3596 84.014 88.6345C84.014 89.9673 84.1662 91.1553 84.4704 92.1984C84.7747 93.227 85.202 94.0963 85.7526 94.8062C86.3176 95.5016 86.9912 96.0376 87.7736 96.4143C88.5704 96.7765 89.4614 96.9576 90.4465 96.9576C91.3882 96.9576 92.1633 96.8489 92.7718 96.6316C93.3803 96.3998 93.8801 96.1463 94.2713 95.871C94.6769 95.5958 95.0101 95.3495 95.2709 95.1322C95.5462 94.9004 95.8142 94.7845 96.075 94.7845C96.3937 94.7845 96.64 94.9076 96.8139 95.1539L97.9004 96.5664C97.4223 97.1604 96.8791 97.6675 96.2706 98.0876C95.6621 98.5078 95.0029 98.8627 94.293 99.1525C93.5976 99.4277 92.866 99.6306 92.0981 99.7609C91.3303 99.8913 90.548 99.9565 89.7511 99.9565C88.3748 99.9565 87.0927 99.703 85.9047 99.1959C84.7312 98.6889 83.7098 97.9572 82.8405 97.0011C81.9713 96.0304 81.2904 94.8424 80.7978 93.4371C80.3052 92.0318 80.0589 90.4309 80.0589 88.6345C80.0589 86.9974 80.2835 85.4834 80.7326 84.0926C81.1962 82.7018 81.8626 81.5066 82.7319 80.5069C83.6156 79.4928 84.695 78.7032 85.9699 78.1382C87.2593 77.5732 88.737 77.2907 90.4031 77.2907C91.9533 77.2907 93.3151 77.5442 94.4886 78.0513C95.6766 78.5438 96.7269 79.2465 97.6397 80.1592L96.6183 81.55Z" fill="white"/>
<path d="M108.811 100C107.073 100 105.733 99.5147 104.791 98.544C103.864 97.5733 103.4 96.1753 103.4 94.3498V80.8763H100.749C100.517 80.8763 100.322 80.8111 100.162 80.6808C100.003 80.5359 99.9231 80.3186 99.9231 80.0288V78.4859L103.531 78.0295L104.422 71.2276C104.465 71.0103 104.559 70.8364 104.704 70.706C104.863 70.5612 105.066 70.4887 105.313 70.4887H107.268V78.073H113.636V80.8763H107.268V94.089C107.268 95.0163 107.493 95.7044 107.942 96.1535C108.391 96.6027 108.971 96.8272 109.681 96.8272C110.086 96.8272 110.434 96.7765 110.724 96.6751C111.028 96.5592 111.289 96.436 111.506 96.3057C111.723 96.1753 111.904 96.0594 112.049 95.958C112.209 95.8421 112.346 95.7841 112.462 95.7841C112.665 95.7841 112.846 95.9072 113.005 96.1535L114.136 98.0007C113.469 98.6237 112.665 99.1163 111.723 99.4784C110.782 99.8261 109.811 100 108.811 100Z" fill="white"/>
<path d="M127.126 96.7837C128.17 96.7837 129.111 96.6171 129.952 96.2839C130.806 95.9507 131.531 95.4871 132.125 94.8931C132.733 94.2991 133.197 93.5965 133.516 92.7852C133.849 91.9739 134.015 91.0901 134.015 90.1339C134.015 89.1198 133.856 88.2071 133.537 87.3958C133.219 86.57 132.762 85.8746 132.168 85.3096C131.589 84.73 130.893 84.2882 130.082 83.9839C129.271 83.6797 128.38 83.5276 127.409 83.5276C126.366 83.5276 125.424 83.7087 124.584 84.0709C123.744 84.4186 123.026 84.8967 122.432 85.5051C121.853 86.0991 121.404 86.7945 121.085 87.5914C120.781 88.3737 120.629 89.1922 120.629 90.047C120.629 91.0466 120.774 91.9594 121.063 92.7852C121.353 93.611 121.773 94.3209 122.324 94.9148C122.889 95.5088 123.57 95.9724 124.367 96.3057C125.178 96.6244 126.098 96.7837 127.126 96.7837ZM124.866 80.1809C124.591 80.5286 124.323 80.8691 124.062 81.2023C123.816 81.521 123.577 81.8398 123.345 82.1585C124.084 81.6514 124.895 81.2603 125.779 80.985C126.663 80.7097 127.626 80.5721 128.669 80.5721C129.93 80.5721 131.118 80.7822 132.233 81.2023C133.349 81.608 134.32 82.2092 135.145 83.006C135.986 83.7884 136.652 84.759 137.145 85.918C137.637 87.0626 137.884 88.3737 137.884 89.8514C137.884 91.2857 137.623 92.6186 137.101 93.85C136.58 95.0815 135.848 96.1535 134.906 97.0663C133.979 97.979 132.856 98.6961 131.538 99.2177C130.234 99.7392 128.793 100 127.213 100C125.649 100 124.229 99.7537 122.954 99.2611C121.679 98.7541 120.593 98.0442 119.694 97.1314C118.811 96.2042 118.122 95.0887 117.63 93.7848C117.152 92.4664 116.913 90.9959 116.913 89.3733C116.913 88.0115 117.21 86.5627 117.804 85.027C118.412 83.4769 119.376 81.8253 120.694 80.0723L128.604 69.4456C128.807 69.1848 129.082 68.9675 129.43 68.7937C129.792 68.6053 130.205 68.5112 130.669 68.5112H134.102L124.866 80.1809Z" fill="white"/>
</svg>
