<svg width="376" height="121" viewBox="0 0 376 121" fill="none" xmlns="http://www.w3.org/2000/svg">
<rect x="0.5" y="0.391846" width="375" height="120.608" fill="white"/>
<path d="M156.821 87.8441C155.834 87.8441 154.942 87.716 154.147 87.4598C153.364 87.1915 152.684 86.8012 152.105 86.2889L152.539 85.3559C153.165 85.8559 153.804 86.2279 154.454 86.4719C155.117 86.7036 155.906 86.8195 156.821 86.8195C157.966 86.8195 158.821 86.5939 159.387 86.1426C159.965 85.6913 160.254 85.0997 160.254 84.3679C160.254 83.758 160.043 83.2824 159.622 82.9408C159.212 82.5993 158.532 82.331 157.58 82.1358L155.755 81.7516C154.623 81.5199 153.774 81.1296 153.208 80.5807C152.654 80.0318 152.376 79.3 152.376 78.3852C152.376 77.6412 152.563 76.9887 152.937 76.4276C153.322 75.8666 153.852 75.4336 154.527 75.1286C155.201 74.8115 155.978 74.653 156.857 74.653C158.616 74.653 160.019 75.1896 161.067 76.263L160.634 77.1777C160.08 76.6533 159.501 76.2752 158.899 76.0434C158.297 75.7995 157.616 75.6775 156.857 75.6775C155.846 75.6775 155.033 75.9214 154.418 76.4093C153.816 76.8972 153.515 77.5498 153.515 78.367C153.515 79.0134 153.708 79.5257 154.093 79.9038C154.478 80.2697 155.099 80.538 155.954 80.7088L157.797 81.093C159.014 81.3491 159.917 81.7333 160.507 82.2456C161.097 82.7457 161.393 83.4348 161.393 84.313C161.393 85.0082 161.206 85.6242 160.832 86.1609C160.471 86.6853 159.947 87.1 159.26 87.405C158.574 87.6977 157.761 87.8441 156.821 87.8441Z" fill="#23578C"/>
<path d="M165.231 76.4825V75.0738H166.712V76.4825H165.231ZM165.411 87.6977V78.8243H166.513V87.6977H165.411Z" fill="#23578C"/>
<path d="M171.223 87.6977V78.8243H172.308V80.4161C172.597 79.8306 173.012 79.3915 173.554 79.0988C174.096 78.806 174.699 78.6597 175.361 78.6597C177.445 78.6597 178.487 79.8062 178.487 82.0992V87.6977H177.385V82.1907C177.385 81.3125 177.21 80.6661 176.861 80.2514C176.511 79.8367 175.957 79.6293 175.198 79.6293C174.331 79.6293 173.633 79.9038 173.103 80.4526C172.585 80.9893 172.326 81.715 172.326 82.6298V87.6977H171.223Z" fill="#23578C"/>
<path d="M186.953 91.1373C185.423 91.1373 184.153 90.7287 183.141 89.9115L183.556 89.0699C184.11 89.4724 184.646 89.759 185.164 89.9297C185.682 90.1127 186.266 90.2042 186.917 90.2042C187.796 90.2042 188.465 89.9602 188.923 89.4724C189.38 88.9845 189.609 88.2771 189.609 87.3501V85.6303C189.356 86.2157 188.953 86.6731 188.399 87.0025C187.856 87.3318 187.236 87.4964 186.538 87.4964C185.718 87.4964 185.014 87.3135 184.424 86.9476C183.845 86.5695 183.394 86.0511 183.068 85.3924C182.755 84.7216 182.599 83.9471 182.599 83.0689C182.599 82.1907 182.755 81.4223 183.068 80.7637C183.394 80.105 183.845 79.5928 184.424 79.2268C185.014 78.8487 185.718 78.6597 186.538 78.6597C187.236 78.6597 187.856 78.8243 188.399 79.1537C188.941 79.483 189.338 79.9343 189.591 80.5075V78.8243H190.675V87.1854C190.675 89.82 189.434 91.1373 186.953 91.1373ZM186.664 86.5451C187.567 86.5451 188.284 86.234 188.814 85.612C189.344 84.9777 189.609 84.1301 189.609 83.0689C189.609 82.0078 189.344 81.1662 188.814 80.5441C188.284 79.9221 187.567 79.6111 186.664 79.6111C185.749 79.6111 185.026 79.9221 184.496 80.5441C183.978 81.1662 183.719 82.0078 183.719 83.0689C183.719 84.1301 183.978 84.9777 184.496 85.612C185.026 86.234 185.749 86.5451 186.664 86.5451Z" fill="#23578C"/>
<path d="M198.103 87.8441C197.513 87.8441 196.983 87.7282 196.513 87.4964C196.056 87.2647 195.688 86.9476 195.411 86.5451C195.146 86.1426 195.014 85.6913 195.014 85.1912C195.014 84.5326 195.176 84.0203 195.502 83.6544C195.827 83.2763 196.375 83.0079 197.146 82.8494C197.917 82.6908 198.977 82.6115 200.326 82.6115H200.886V81.9529C200.886 81.1357 200.723 80.5441 200.398 80.1782C200.073 79.8001 199.555 79.6111 198.844 79.6111C198.314 79.6111 197.802 79.6903 197.308 79.8489C196.827 80.0075 196.327 80.2575 195.809 80.599L195.375 79.7391C195.833 79.4098 196.375 79.1476 197.001 78.9524C197.628 78.7573 198.236 78.6597 198.826 78.6597C199.886 78.6597 200.669 78.9341 201.175 79.483C201.693 80.0318 201.952 80.8734 201.952 82.0078V87.6977H200.904V86.106C200.663 86.6548 200.296 87.0817 199.802 87.3867C199.32 87.6916 198.754 87.8441 198.103 87.8441ZM198.248 86.9476C198.766 86.9476 199.218 86.8256 199.603 86.5817C200.001 86.3255 200.314 85.9779 200.543 85.5388C200.771 85.0997 200.886 84.5996 200.886 84.0386V83.4348H200.344C199.26 83.4348 198.411 83.4836 197.796 83.5812C197.194 83.6788 196.772 83.8495 196.531 84.0935C196.291 84.3374 196.17 84.6728 196.17 85.0997C196.17 85.6486 196.357 86.0938 196.73 86.4353C197.104 86.7768 197.61 86.9476 198.248 86.9476Z" fill="#23578C"/>
<path d="M206.64 90.9909V78.8243H207.742V80.4892C208.007 79.9282 208.405 79.483 208.935 79.1537C209.477 78.8243 210.103 78.6597 210.814 78.6597C211.597 78.6597 212.277 78.8487 212.855 79.2268C213.446 79.605 213.897 80.1355 214.21 80.8186C214.536 81.5016 214.698 82.3127 214.698 83.2519C214.698 84.191 214.536 85.0082 214.21 85.7035C213.897 86.3865 213.446 86.9171 212.855 87.2952C212.277 87.6611 211.597 87.8441 210.814 87.8441C210.103 87.8441 209.477 87.6855 208.935 87.3684C208.405 87.0512 208.007 86.6122 207.742 86.0511V90.9909H206.64ZM210.651 86.911C211.542 86.911 212.253 86.5939 212.783 85.9596C213.313 85.3132 213.578 84.4106 213.578 83.2519C213.578 82.0931 213.313 81.1967 212.783 80.5624C212.253 79.9282 211.542 79.6111 210.651 79.6111C209.76 79.6111 209.049 79.9282 208.519 80.5624C207.989 81.1967 207.724 82.0931 207.724 83.2519C207.724 84.4106 207.989 85.3132 208.519 85.9596C209.049 86.5939 209.76 86.911 210.651 86.911Z" fill="#23578C"/>
<path d="M222.327 87.8441C221.508 87.8441 220.797 87.6611 220.195 87.2952C219.592 86.9171 219.123 86.3865 218.785 85.7035C218.46 85.0082 218.297 84.191 218.297 83.2519C218.297 82.3249 218.46 81.5199 218.785 80.8369C219.123 80.1416 219.592 79.605 220.195 79.2268C220.797 78.8487 221.508 78.6597 222.327 78.6597C223.158 78.6597 223.874 78.8487 224.477 79.2268C225.079 79.605 225.543 80.1416 225.868 80.8369C226.205 81.5199 226.374 82.3249 226.374 83.2519C226.374 84.191 226.205 85.0082 225.868 85.7035C225.543 86.3865 225.079 86.9171 224.477 87.2952C223.874 87.6611 223.158 87.8441 222.327 87.8441ZM222.327 86.911C223.218 86.911 223.929 86.5939 224.459 85.9596C224.989 85.3132 225.254 84.4106 225.254 83.2519C225.254 82.0931 224.989 81.1967 224.459 80.5624C223.929 79.9282 223.218 79.6111 222.327 79.6111C221.435 79.6111 220.725 79.9282 220.195 80.5624C219.677 81.1967 219.418 82.0931 219.418 83.2519C219.418 84.4106 219.677 85.3132 220.195 85.9596C220.725 86.5939 221.435 86.911 222.327 86.911Z" fill="#23578C"/>
<path d="M230.527 87.6977V78.8243H231.611V80.4344C231.864 79.8733 232.232 79.4464 232.714 79.1537C233.195 78.8609 233.81 78.6902 234.557 78.6414L235.008 78.6048L235.117 79.5745L234.34 79.6659C233.484 79.7391 232.822 80.0258 232.352 80.5258C231.882 81.0137 231.648 81.6724 231.648 82.5018V87.6977H230.527Z" fill="#23578C"/>
<path d="M242.216 87.8441C240.867 87.8441 239.801 87.4416 239.018 86.6365C238.247 85.8193 237.862 84.7033 237.862 83.2885C237.862 82.3737 238.037 81.5687 238.386 80.8734C238.735 80.1782 239.217 79.6354 239.831 79.2451C240.458 78.8548 241.174 78.6597 241.981 78.6597C243.15 78.6597 244.059 79.0439 244.71 79.8123C245.36 80.5807 245.685 81.6358 245.685 82.9774V83.4897H238.946C238.982 84.5874 239.277 85.4351 239.831 86.0328C240.397 86.6183 241.18 86.911 242.18 86.911C242.722 86.911 243.228 86.8256 243.698 86.6548C244.18 86.4841 244.65 86.1975 245.107 85.795L245.541 86.6365C245.155 87.0147 244.662 87.3135 244.059 87.533C243.457 87.7404 242.843 87.8441 242.216 87.8441ZM241.999 79.5562C241.084 79.5562 240.367 79.8489 239.849 80.4344C239.343 81.0076 239.048 81.7516 238.964 82.6664H244.692C244.668 81.6906 244.427 80.9283 243.969 80.3795C243.511 79.8306 242.855 79.5562 241.999 79.5562Z" fill="#23578C"/>
<path fill-rule="evenodd" clip-rule="evenodd" d="M162.676 61.3442V61.9177H151.863V61.3442H152.55C153.149 61.3442 153.632 61.2358 153.998 61.0187C154.263 60.874 154.466 60.626 154.608 60.2746C154.72 60.0265 154.776 59.3754 154.776 58.3213V44.4933C154.776 43.4185 154.72 42.7468 154.608 42.478C154.496 42.2094 154.27 41.9742 153.93 41.7726C153.589 41.5711 153.129 41.4703 152.55 41.4703H151.863V40.8967H162.676V41.4703H161.989C161.389 41.4703 160.907 41.5788 160.541 41.7959C160.276 41.9408 160.068 42.1888 159.915 42.54C159.803 42.788 159.748 43.4391 159.748 44.4933V58.3213C159.748 59.3964 159.806 60.068 159.923 60.3366C160.04 60.6054 160.269 60.8404 160.609 61.042C160.95 61.2434 161.41 61.3442 161.989 61.3442H162.676Z" fill="#23578C"/>
<path fill-rule="evenodd" clip-rule="evenodd" d="M171.825 40.8967L182.144 53.9081V44.8883C182.144 43.6301 181.964 42.7791 181.604 42.3355C181.111 41.7375 180.283 41.4486 179.121 41.4692V40.8967H186.031V41.4692C185.147 41.5829 184.553 41.7297 184.249 41.9102C183.946 42.0907 183.71 42.3846 183.54 42.7919C183.37 43.1996 183.286 43.8982 183.286 44.8883V62.3557H182.761L168.617 44.8883V58.2246C168.617 59.4314 168.892 60.2463 169.442 60.6692C169.992 61.0923 170.622 61.3035 171.332 61.3035H171.825V61.8759H164.406V61.3035C165.558 61.2933 166.36 61.0559 166.813 60.5918C167.265 60.1276 167.491 59.3386 167.491 58.2246V43.4186L167.044 42.8616C166.602 42.3046 166.211 41.9387 165.872 41.7632C165.532 41.5879 165.044 41.4899 164.406 41.4692V40.8967H171.825Z" fill="#23578C"/>
<path fill-rule="evenodd" clip-rule="evenodd" d="M206.789 40.8967V46.586H206.239C205.913 45.2738 205.552 44.3305 205.155 43.7569C204.758 43.1833 204.213 42.7261 203.521 42.385C203.134 42.1989 202.457 42.1059 201.491 42.1059H199.948V58.3213C199.948 59.3962 200.007 60.0679 200.124 60.3366C200.241 60.6054 200.47 60.8404 200.811 61.0419C201.152 61.2434 201.617 61.3442 202.208 61.3442H202.895V61.9177H192.055V61.3442H192.742C193.342 61.3442 193.826 61.2356 194.192 61.0187C194.456 60.874 194.665 60.626 194.818 60.2746C194.93 60.0265 194.986 59.3754 194.986 58.3213V42.1059H193.49C192.095 42.1059 191.082 42.4058 190.451 43.005C189.566 43.8422 189.006 45.0358 188.772 46.586H188.191V40.8967H206.789Z" fill="#23578C"/>
<path fill-rule="evenodd" clip-rule="evenodd" d="M216.499 42.1059V50.6632H216.915C218.243 50.6632 219.204 50.2447 219.802 49.4075C220.398 48.5704 220.779 47.3355 220.944 45.7025H221.53V56.7091H220.944C220.82 55.5103 220.56 54.5286 220.164 53.7636C219.768 52.9989 219.308 52.4847 218.783 52.2212C218.258 51.9576 217.497 51.8258 216.499 51.8258V57.7477C216.499 58.9053 216.548 59.6133 216.645 59.8716C216.743 60.13 216.925 60.342 217.193 60.5072C217.461 60.6726 217.893 60.7551 218.49 60.7551H219.74C221.695 60.7551 223.261 60.3006 224.439 59.3909C225.617 58.4817 226.463 57.0966 226.978 55.2364H227.549L226.608 61.9177H208.52V61.3442H209.214C209.821 61.3442 210.31 61.2358 210.68 61.0187C210.947 60.874 211.153 60.626 211.298 60.2746C211.411 60.0265 211.467 59.3754 211.467 58.3213V44.4933C211.467 43.5426 211.441 42.9586 211.39 42.7416C211.287 42.3798 211.097 42.1008 210.819 41.9044C210.428 41.6152 209.893 41.4703 209.214 41.4703H208.52V40.8967H226.037V47.1132H225.45C225.152 45.594 224.733 44.5037 224.192 43.8422C223.652 43.181 222.888 42.6951 221.9 42.385C221.324 42.1989 220.244 42.1059 218.659 42.1059H216.499Z" fill="#23578C"/>
<path fill-rule="evenodd" clip-rule="evenodd" d="M237.944 42.0283V51.2367H238.823C240.251 51.2367 241.32 51.1049 242.029 50.8414C242.738 50.5778 243.296 50.1026 243.702 49.4152C244.107 48.7279 244.31 47.8315 244.31 46.7255C244.31 45.1237 243.938 43.9404 243.193 43.1754C242.448 42.4108 241.248 42.0283 239.594 42.0283H237.944ZM237.944 52.3373V58.2282C237.944 59.3652 238.014 60.0807 238.152 60.3753C238.291 60.6698 238.535 60.905 238.885 61.0807C239.234 61.2565 239.886 61.3441 240.842 61.3441V61.9177H230.145V61.3441C231.111 61.3441 231.766 61.2538 232.11 61.0729C232.454 60.8922 232.696 60.657 232.835 60.3675C232.973 60.0783 233.042 59.3652 233.042 58.2282V44.5862C233.042 43.4495 232.973 42.7337 232.835 42.4392C232.696 42.1446 232.452 41.9097 232.102 41.7338C231.753 41.5582 231.1 41.4702 230.145 41.4702V40.8967H239.856C242.384 40.8967 244.233 41.0726 245.405 41.4237C246.576 41.7752 247.532 42.4237 248.272 43.3693C249.012 44.315 249.382 45.4233 249.382 46.6945C249.382 48.2448 248.827 49.5263 247.717 50.5391C247.008 51.18 246.016 51.6606 244.742 51.9808L249.767 59.0964C250.425 60.0163 250.892 60.5899 251.17 60.8171C251.591 61.1375 252.079 61.3131 252.634 61.3441V61.9177H246.052L239.316 52.3373H237.944Z" fill="#23578C"/>
<path fill-rule="evenodd" clip-rule="evenodd" d="M260.885 42.1059V50.7407H261.474C262.382 50.7407 263.123 50.6012 263.697 50.3222C264.272 50.0431 264.758 49.5729 265.157 48.9115C265.555 48.2502 265.814 47.3561 265.935 46.2295H266.465V56.7865H265.935C265.744 54.7922 265.222 53.4769 264.37 52.8413C263.518 52.2057 262.553 51.8879 261.474 51.8879H260.885V58.3213C260.885 59.3964 260.942 60.068 261.059 60.3366C261.174 60.6054 261.401 60.8404 261.739 61.042C262.077 61.2434 262.533 61.3442 263.108 61.3442H263.788V61.9177H253.066V61.3442H253.747C254.342 61.3442 254.821 61.2358 255.183 61.0187C255.446 60.874 255.647 60.626 255.788 60.2746C255.899 60.0265 255.955 59.3754 255.955 58.3213V44.4933C255.955 43.4185 255.899 42.7468 255.788 42.478C255.678 42.2094 255.453 41.9742 255.116 41.7726C254.778 41.5711 254.322 41.4703 253.747 41.4703H253.066V40.8967H270.366V46.9272H269.746C269.605 45.5114 269.245 44.4623 268.665 43.7802C268.085 43.0981 267.246 42.6176 266.147 42.3385C265.542 42.1834 264.423 42.1059 262.79 42.1059H260.885Z" fill="#23578C"/>
<path fill-rule="evenodd" clip-rule="evenodd" d="M291.557 54.5387L290.784 61.9177H272.527V61.3442H273.21C273.806 61.3442 274.286 61.2356 274.65 61.0187C274.913 60.874 275.115 60.626 275.257 60.2745C275.368 60.0265 275.424 59.3754 275.424 58.3212V44.4933C275.424 43.4185 275.368 42.7468 275.257 42.478C275.145 42.2093 274.92 41.9742 274.582 41.7726C274.243 41.571 273.786 41.4703 273.21 41.4703H272.527V40.8967H283.49V41.4703H282.596C281.999 41.4703 281.519 41.5788 281.155 41.7958C280.892 41.9407 280.685 42.1887 280.534 42.54C280.422 42.7879 280.367 43.439 280.367 44.4933V57.8872C280.367 58.9622 280.427 59.6467 280.549 59.9412C280.67 60.2358 280.907 60.4554 281.261 60.6C281.514 60.6931 282.126 60.7396 283.096 60.7396H284.809C285.901 60.7396 286.811 60.5435 287.539 60.1505C288.267 59.7578 288.896 59.1377 289.427 58.2902C289.957 57.4429 290.46 56.1924 290.935 54.5387H291.557Z" fill="#23578C"/>
<path fill-rule="evenodd" clip-rule="evenodd" d="M293.723 40.8967H304.349V41.4688H303.818C303.018 41.4688 302.469 41.5537 302.171 41.7239C301.872 41.8938 301.66 42.1284 301.533 42.4273C301.406 42.7264 301.343 43.4735 301.343 44.669V54.9347C301.343 56.8107 301.482 58.0526 301.761 58.6606C302.039 59.2688 302.497 59.7737 303.135 60.1756C303.772 60.5777 304.577 60.7786 305.548 60.7786C306.662 60.7786 307.61 60.5235 308.395 60.0133C309.179 59.5031 309.766 58.7997 310.156 57.903C310.545 57.0063 310.74 55.4448 310.74 53.2185V44.669C310.74 43.7313 310.644 43.0612 310.452 42.6592C310.26 42.2572 310.017 41.9789 309.723 41.8244C309.268 41.5874 308.625 41.4688 307.795 41.4688V40.8967H314.915V41.4688H314.49C313.913 41.4688 313.432 41.5874 313.048 41.8244C312.663 42.0616 312.385 42.4172 312.213 42.8911C312.081 43.221 312.015 43.8136 312.015 44.669V52.6311C312.015 55.0945 311.856 56.8725 311.537 57.9649C311.218 59.0575 310.442 60.0624 309.207 60.9796C307.972 61.8968 306.287 62.3557 304.152 62.3557C302.371 62.3557 300.994 62.1133 300.023 61.6289C298.697 60.9694 297.761 60.1242 297.214 59.0934C296.668 58.0629 296.394 56.6765 296.394 54.9347V44.669C296.394 43.4632 296.329 42.7133 296.197 42.4195C296.066 42.1258 295.838 41.8915 295.514 41.7161C295.19 41.541 294.593 41.4586 293.723 41.4688V40.8967Z" fill="#23578C"/>
<path fill-rule="evenodd" clip-rule="evenodd" d="M329.147 49.5935L334.833 58.1972C335.775 59.6234 336.446 60.4892 336.847 60.7938C337.247 61.0988 337.721 61.2821 338.268 61.3442V61.9177H328.22V61.3442C329.021 61.2821 329.537 61.1581 329.771 60.9721C330.004 60.7861 330.12 60.559 330.12 60.29C330.12 60.104 330.085 59.9389 330.014 59.794C329.872 59.4839 329.517 58.9053 328.95 58.0577L325.94 53.5155L322.793 57.4376C321.851 58.6262 321.379 59.4323 321.379 59.8559C321.379 60.1558 321.501 60.4349 321.744 60.6931C321.987 60.9515 322.347 61.1375 322.823 61.2511C323.036 61.3131 323.472 61.3442 324.131 61.3442V61.9177H316.211V61.3442C317.113 61.2101 317.822 60.962 318.339 60.6C319.018 60.1248 319.966 59.1327 321.182 57.6236L325.271 52.5389L320.027 44.6792C319.165 43.3875 318.674 42.6692 318.552 42.5245C318.278 42.1834 318.01 41.9407 317.746 41.7958C317.483 41.6513 317.118 41.5427 316.652 41.4702V40.8967H326.882V41.4702H326.365C325.778 41.4702 325.367 41.566 325.134 41.7571C324.901 41.9485 324.785 42.1887 324.785 42.4779C324.785 42.7054 324.82 42.9018 324.891 43.067L325.94 44.6792L328.494 48.6478L330.668 45.9349C331.782 44.5398 332.34 43.5631 332.34 43.005C332.34 42.7259 332.261 42.4678 332.104 42.2299C331.947 41.9923 331.721 41.8062 331.428 41.6718C331.134 41.5376 330.678 41.4702 330.059 41.4702V40.8967H337.645V41.4702C337.047 41.4807 336.566 41.5555 336.201 41.6951C335.836 41.8346 335.446 42.0957 335.03 42.4779C334.767 42.7259 334.108 43.496 333.054 44.7877L329.147 49.5935Z" fill="#23578C"/>
<path fill-rule="evenodd" clip-rule="evenodd" d="M352.098 45.3601C352.65 45.3601 353.053 45.3056 353.308 45.1967C353.562 45.0878 353.757 44.9351 353.893 44.7385C354.029 44.542 354.096 44.3183 354.096 44.0672C354.096 43.6837 353.964 43.3616 353.7 43.1012C353.436 42.8408 353.098 42.7105 352.687 42.7105C352.51 42.7105 352.313 42.7485 352.098 42.8241V45.3601ZM350.437 42.398H353.143C353.821 42.398 354.337 42.5531 354.692 42.8633C355.047 43.1734 355.225 43.5488 355.225 43.9891C355.225 44.349 355.105 44.6652 354.864 44.9374C354.623 45.2098 354.225 45.4194 353.669 45.5661L355.134 47.6828C355.312 47.9339 355.47 48.1067 355.611 48.2014C355.699 48.2582 355.823 48.2938 355.982 48.308V48.5424H354.692L352.631 45.6655H352.098V47.8604C352.127 48.0168 352.193 48.1304 352.298 48.2014C352.404 48.2725 352.613 48.308 352.926 48.308V48.5424H350.353V48.308C350.577 48.308 350.736 48.2808 350.83 48.2262C350.923 48.1719 350.991 48.0925 351.033 47.9883C351.066 47.9126 351.082 47.6925 351.082 47.3277V43.6126C351.082 43.2622 351.075 43.0563 351.061 42.9947C351.028 42.8857 350.969 42.8018 350.882 42.7425C350.796 42.6833 350.647 42.6537 350.437 42.6537V42.398ZM353.185 40.892C352.423 40.892 351.68 41.0909 350.956 41.4887C350.231 41.8866 349.666 42.4537 349.259 43.19C348.853 43.9264 348.65 44.6948 348.65 45.495C348.65 46.2906 348.849 47.0531 349.249 47.7823C349.649 48.5117 350.208 49.0799 350.928 49.4871C351.647 49.8945 352.4 50.098 353.185 50.098C353.97 50.098 354.724 49.8945 355.446 49.4871C356.168 49.0799 356.729 48.5117 357.128 47.7823C357.528 47.0531 357.728 46.2906 357.728 45.495C357.728 44.6948 357.524 43.9264 357.118 43.19C356.711 42.4537 356.146 41.8866 355.421 41.4887C354.697 41.0909 353.952 40.892 353.185 40.892ZM353.185 40.4587C354.022 40.4587 354.837 40.6753 355.632 41.1087C356.426 41.542 357.046 42.1625 357.493 42.9697C357.939 43.7773 358.162 44.619 358.162 45.495C358.162 46.3664 357.943 47.2022 357.503 48.0025C357.064 48.8029 356.449 49.4244 355.66 49.8671C354.87 50.3101 354.045 50.5313 353.185 50.5313C352.325 50.5313 351.501 50.3101 350.714 49.8671C349.927 49.4244 349.313 48.8029 348.874 48.0025C348.435 47.2022 348.215 46.3664 348.215 45.495C348.215 44.619 348.438 43.7773 348.884 42.9697C349.331 42.1625 349.951 41.542 350.745 41.1087C351.54 40.6753 352.353 40.4587 353.185 40.4587Z" fill="#23578C"/>
<path fill-rule="evenodd" clip-rule="evenodd" d="M115.114 60.1075V55.699L113.809 55.7705C113.378 52.7225 112.561 49.7537 111.365 46.8987C111.018 46.0696 110.641 45.2569 110.236 44.4612C114.985 46.4732 115.779 53.14 115.779 53.14H120.074L118.471 44.3615C122.013 49.1446 123.975 54.5165 124.15 60.1075H115.114ZM110.873 85.0687C106.304 88.5146 100.936 91.1425 95.0816 92.8553C98.2547 91.1704 101.149 89.0165 103.713 86.4274C105.587 84.5349 107.231 82.4637 108.632 80.2347H110.871V78.9095C110.871 78.9095 110.294 78.9092 109.503 78.772C110.195 77.5461 110.816 76.2771 111.365 74.9668C112.899 71.3043 113.81 67.4542 114.083 63.49L115.114 63.5468V61.758H124.15C123.874 70.5492 119.184 78.7991 110.873 85.0687ZM96.4539 86.3075C97.7456 84.4472 98.8807 82.4166 99.8503 80.2342L106.463 80.2347C102.426 86.1898 96.5765 90.7982 89.7236 93.2421C92.2188 91.4796 94.4778 89.1533 96.4539 86.3075ZM84.121 93.9151C85.7174 92.0619 87.1421 89.4325 88.3557 86.1011C89.0141 84.2934 89.593 82.3271 90.0878 80.234L97.8708 80.2342C94.5944 87.2061 89.5964 92.332 83.7764 94.3004C83.892 94.176 84.0069 94.0481 84.121 93.9151ZM79.2788 95.0947V80.2345L87.5854 80.2347V78.9095C87.5854 78.9095 81.7899 78.9095 81.7899 74.5395V61.758H90.3615C90.286 70.735 88.9819 79.1314 86.6693 85.48C84.6298 91.0794 81.975 94.5103 79.2788 95.0947ZM70.2465 85.48C69.6554 83.8569 69.1303 82.1 68.6747 80.2342L77.6371 80.2345V95.0947C74.9411 94.5103 72.2862 91.0794 70.2465 85.48ZM54.9539 61.758H64.7586C64.809 67.8616 65.4192 73.7137 66.5219 78.873C66.1426 78.9095 65.9046 78.9095 65.9046 78.9095V80.234H66.8281C67.3229 82.3271 67.9018 84.2934 68.5603 86.101C69.7738 89.4325 71.1985 92.0619 72.7949 93.9151C72.9091 94.0481 73.024 94.176 73.1394 94.3004C62.9056 90.8394 55.2126 77.6158 54.9539 61.758ZM44.5504 61.758H53.1579C53.2285 66.299 53.8828 70.7071 55.106 74.8719C56.3629 79.1515 58.1648 82.9988 60.4619 86.3075C62.438 89.1533 64.6972 91.4798 67.1922 93.2421C54.2549 88.6284 44.8928 76.3006 44.5504 61.758ZM46.0431 85.0687C37.7319 78.7991 33.042 70.5492 32.7654 61.758H42.754C42.8549 66.3334 43.7942 70.773 45.5509 74.9668C47.3493 79.2603 49.9241 83.1163 53.2034 86.4274C55.7674 89.0165 58.6613 91.1704 61.8344 92.8553C55.9799 91.1425 50.6117 88.5146 46.0431 85.0687ZM46.0431 36.7971C50.6117 33.3509 55.9799 30.723 61.8344 29.0103C58.6613 30.695 55.7674 32.849 53.2034 35.438C49.9241 38.7492 47.3493 42.6051 45.5509 46.8987C43.7942 51.0925 42.8549 55.5322 42.754 60.1075H32.7654C33.042 51.3164 37.7319 43.0663 46.0431 36.7971ZM60.4619 35.5582C58.1648 38.8666 56.3629 42.7139 55.106 46.9935C53.8828 51.1586 53.2285 55.5664 53.1579 60.1075H44.5504C44.8928 45.5648 54.2549 33.2372 67.1923 28.6234C64.6973 30.3858 62.438 32.7123 60.4619 35.5582ZM72.7949 27.9503C71.1985 29.8039 69.7738 32.433 68.5603 35.7646C67.902 37.572 67.323 39.5382 66.8283 41.6308L65.9046 41.6307V42.9563C65.9046 42.9563 66.1425 42.9563 66.5219 42.9926C65.4192 48.1519 64.809 54.0041 64.7586 60.1075H54.9539C55.2126 44.2499 62.9056 31.0261 73.1394 27.5653C73.024 27.6894 72.9091 27.8176 72.7949 27.9503ZM71.7001 60.1075H66.5544C66.6047 54.1095 67.2039 48.3711 68.2855 43.3293C69.8844 43.8035 71.7001 44.8802 71.7001 47.3263V60.1075ZM66.5544 61.758H71.7001V74.5395C71.7001 76.9853 69.8844 78.0621 68.2855 78.5364C67.2039 73.4946 66.6047 67.7559 66.5544 61.758ZM77.6371 26.7708V41.6313L68.6748 41.6308C69.1305 39.765 69.6556 38.0084 70.2465 36.3854C72.2861 30.786 74.9411 27.3551 77.6371 26.7708ZM86.6693 36.3854C88.9819 42.734 90.286 51.1304 90.3615 60.1075H81.7899V47.3263C81.7899 42.9563 87.5854 42.9563 87.5854 42.9563V41.6317L79.2788 41.6313V26.7708C81.975 27.3553 84.6298 30.786 86.6693 36.3854ZM97.8708 41.6311L90.0877 41.6307C89.5928 39.5382 89.014 37.572 88.3557 35.7646C87.1421 32.433 85.7174 29.8039 84.121 27.9503C84.0069 27.8176 83.892 27.6894 83.7765 27.5653C89.5964 29.5335 94.5944 34.6592 97.8708 41.6311ZM106.464 41.6313L99.8502 41.6311C98.8806 39.4491 97.7456 37.4184 96.4539 35.5582C94.4778 32.7123 92.2186 30.3858 89.7236 28.6234C96.5767 31.0675 102.426 35.676 106.464 41.6313ZM105.076 56.2502V47.3263C105.076 44.5709 105.223 43.3127 107.799 43.7661C109.908 47.4267 111.364 51.5158 112.005 55.8697L105.076 56.2502ZM105.076 62.9957L112.288 63.3917C111.908 68.7849 110.285 73.8368 107.708 78.2568C106.353 77.6793 105.076 76.5909 105.076 74.5395V62.9957ZM94.9861 61.758V74.5395C94.9861 77.6179 92.1103 78.5275 90.4103 78.7965C91.5027 73.6561 92.1071 67.8313 92.1573 61.758H94.9861ZM94.9861 60.1075H92.1573C92.1071 54.0343 91.5027 48.2097 90.4103 43.0692C92.1103 43.338 94.9861 44.2478 94.9861 47.3263V60.1075ZM110.873 36.7971C112.867 38.3012 114.651 39.9194 116.218 41.6317L108.632 41.6313C107.231 39.4024 105.587 37.331 103.713 35.438C101.149 32.8491 98.2547 30.695 95.0816 29.0103C100.936 30.723 106.304 33.3509 110.873 36.7971ZM125.947 60.1075C125.812 55.4965 124.547 51.0255 122.181 46.8058C119.773 42.5102 116.331 38.6568 111.951 35.3529C107.59 32.0633 102.516 29.482 96.8698 27.6806C91.2867 25.8993 85.3727 24.9591 79.2788 24.8815V17.277H77.6371V24.8815C71.5433 24.9591 65.6293 25.8993 60.0462 27.6806C54.4002 29.482 49.3263 32.0633 44.9653 35.3529C40.5854 38.6568 37.1431 42.5102 34.7345 46.8058C32.3685 51.0255 31.1038 55.4965 30.969 60.1075H17.5469V61.758H30.969C31.1038 66.3691 32.3685 70.8399 34.7345 75.0597C37.1431 79.3555 40.5854 83.2087 44.9653 86.5128C49.3263 89.8023 54.4002 92.3835 60.0462 94.1849C65.6293 95.9661 71.5433 96.9064 77.6371 96.9841V104.589H79.2788V96.9841C85.3727 96.9064 91.2867 95.9661 96.8698 94.1849C102.516 92.3835 107.59 89.8023 111.951 86.5128C116.331 83.2087 119.773 79.3555 122.181 75.0597C124.547 70.8399 125.812 66.3691 125.947 61.758H139.369V60.1075H125.947Z" fill="#23578C"/>
</svg>
