<svg width="338" height="86" viewBox="0 0 338 86" fill="none" xmlns="http://www.w3.org/2000/svg">
<path d="M138.086 68.9645C137.106 68.9645 136.223 68.8394 135.434 68.589C134.658 68.3268 133.983 67.9454 133.41 67.4447L133.84 66.5328C134.461 67.0216 135.094 67.3851 135.739 67.6235C136.396 67.85 137.178 67.9632 138.086 67.9632C139.22 67.9632 140.068 67.7427 140.629 67.3017C141.203 66.8606 141.489 66.2825 141.489 65.5673C141.489 64.9713 141.28 64.5064 140.862 64.1727C140.456 63.8389 139.782 63.5767 138.838 63.3859L137.029 63.0105C135.906 62.784 135.064 62.4025 134.503 61.8661C133.954 61.3297 133.679 60.6145 133.679 59.7205C133.679 58.9934 133.864 58.3557 134.234 57.8074C134.616 57.259 135.142 56.8359 135.811 56.5379C136.479 56.228 137.25 56.073 138.122 56.073C139.865 56.073 141.256 56.5975 142.296 57.6464L141.866 58.5404C141.316 58.0279 140.743 57.6584 140.146 57.4319C139.549 57.1935 138.874 57.0743 138.122 57.0743C137.118 57.0743 136.312 57.3127 135.703 57.7895C135.106 58.2663 134.807 58.904 134.807 59.7027C134.807 60.3344 134.999 60.8351 135.381 61.2046C135.763 61.5622 136.378 61.8244 137.226 61.9913L139.053 62.3668C140.259 62.6171 141.155 62.9926 141.74 63.4932C142.325 63.9819 142.618 64.6554 142.618 65.5137C142.618 66.1931 142.433 66.7951 142.063 67.3196C141.704 67.8321 141.185 68.2374 140.504 68.5354C139.823 68.8215 139.017 68.9645 138.086 68.9645Z" fill="white"/>
<path d="M146.423 57.861V56.4842H147.892V57.861H146.423ZM146.602 68.8215V60.1497H147.695V68.8215H146.602Z" fill="white"/>
<path d="M152.365 68.8215V60.1497H153.44V61.7052C153.726 61.1331 154.138 60.7039 154.676 60.4179C155.213 60.1318 155.81 59.9887 156.467 59.9887C158.533 59.9887 159.566 61.1092 159.566 63.3502V68.8215H158.474V63.4396C158.474 62.5813 158.3 61.9496 157.954 61.5443C157.608 61.139 157.058 60.9364 156.306 60.9364C155.446 60.9364 154.754 61.2046 154.228 61.741C153.715 62.2655 153.458 62.9747 153.458 63.8687V68.8215H152.365Z" fill="white"/>
<path d="M167.96 72.1829C166.444 72.1829 165.184 71.7836 164.181 70.985L164.593 70.1625C165.142 70.5559 165.673 70.836 166.187 71.0029C166.7 71.1817 167.28 71.2711 167.925 71.2711C168.796 71.2711 169.459 71.0327 169.913 70.5559C170.367 70.0791 170.594 69.3877 170.594 68.4818V66.801C170.343 67.3732 169.943 67.8202 169.394 68.142C168.856 68.4639 168.241 68.6248 167.548 68.6248C166.736 68.6248 166.038 68.446 165.452 68.0884C164.879 67.7189 164.431 67.2123 164.109 66.5686C163.798 65.913 163.643 65.1561 163.643 64.2978C163.643 63.4396 163.798 62.6886 164.109 62.0449C164.431 61.4013 164.879 60.9006 165.452 60.543C166.038 60.1735 166.736 59.9887 167.548 59.9887C168.241 59.9887 168.856 60.1497 169.394 60.4715C169.931 60.7933 170.325 61.2344 170.576 61.7946V60.1497H171.651V68.3208C171.651 70.8956 170.421 72.1829 167.96 72.1829ZM167.674 67.695C168.569 67.695 169.28 67.3911 169.806 66.7832C170.331 66.1633 170.594 65.3349 170.594 64.2978C170.594 63.2608 170.331 62.4383 169.806 61.8304C169.28 61.2225 168.569 60.9185 167.674 60.9185C166.766 60.9185 166.05 61.2225 165.524 61.8304C165.011 62.4383 164.754 63.2608 164.754 64.2978C164.754 65.3349 165.011 66.1633 165.524 66.7832C166.05 67.3911 166.766 67.695 167.674 67.695Z" fill="white"/>
<path d="M179.016 68.9645C178.43 68.9645 177.905 68.8513 177.439 68.6248C176.985 68.3983 176.621 68.0884 176.346 67.695C176.084 67.3017 175.952 66.8606 175.952 66.3719C175.952 65.7282 176.113 65.2276 176.436 64.87C176.758 64.5005 177.302 64.2382 178.066 64.0833C178.83 63.9283 179.881 63.8508 181.219 63.8508H181.774V63.2071C181.774 62.4085 181.613 61.8304 181.291 61.4728C180.968 61.1033 180.455 60.9185 179.75 60.9185C179.225 60.9185 178.717 60.996 178.227 61.1509C177.75 61.3059 177.254 61.5503 176.74 61.884L176.311 61.0437C176.764 60.7218 177.302 60.4655 177.923 60.2748C178.544 60.0841 179.147 59.9887 179.732 59.9887C180.783 59.9887 181.559 60.2569 182.061 60.7933C182.574 61.3297 182.831 62.1522 182.831 63.2608V68.8215H181.792V67.2659C181.553 67.8023 181.189 68.2195 180.699 68.5175C180.222 68.8155 179.66 68.9645 179.016 68.9645ZM179.159 68.0884C179.672 68.0884 180.12 67.9692 180.502 67.7308C180.897 67.4805 181.207 67.1408 181.434 66.7116C181.661 66.2825 181.774 65.7938 181.774 65.2455V64.6554H181.237C180.162 64.6554 179.32 64.7031 178.711 64.7985C178.114 64.8938 177.696 65.0607 177.457 65.2991C177.218 65.5375 177.099 65.8653 177.099 66.2825C177.099 66.8189 177.284 67.254 177.654 67.5878C178.024 67.9215 178.526 68.0884 179.159 68.0884Z" fill="white"/>
<path d="M187.479 72.0399V60.1497H188.572V61.7767C188.835 61.2284 189.229 60.7933 189.754 60.4715C190.292 60.1497 190.913 59.9887 191.617 59.9887C192.394 59.9887 193.068 60.1735 193.642 60.543C194.227 60.9125 194.675 61.4311 194.985 62.0986C195.308 62.7661 195.469 63.5588 195.469 64.4766C195.469 65.3945 195.308 66.1931 194.985 66.8726C194.675 67.5401 194.227 68.0586 193.642 68.4281C193.068 68.7857 192.394 68.9645 191.617 68.9645C190.913 68.9645 190.292 68.8096 189.754 68.4996C189.229 68.1897 188.835 67.7606 188.572 67.2123V72.0399H187.479ZM191.456 68.0526C192.34 68.0526 193.045 67.7427 193.57 67.1229C194.095 66.4911 194.358 65.609 194.358 64.4766C194.358 63.3442 194.095 62.4681 193.57 61.8483C193.045 61.2284 192.34 60.9185 191.456 60.9185C190.572 60.9185 189.868 61.2284 189.342 61.8483C188.817 62.4681 188.554 63.3442 188.554 64.4766C188.554 65.609 188.817 66.4911 189.342 67.1229C189.868 67.7427 190.572 68.0526 191.456 68.0526Z" fill="white"/>
<path d="M203.032 68.9645C202.22 68.9645 201.515 68.7857 200.918 68.4281C200.321 68.0586 199.855 67.5401 199.521 66.8726C199.198 66.1931 199.037 65.3945 199.037 64.4766C199.037 63.5707 199.198 62.784 199.521 62.1165C199.855 61.437 200.321 60.9125 200.918 60.543C201.515 60.1735 202.22 59.9887 203.032 59.9887C203.856 59.9887 204.567 60.1735 205.164 60.543C205.761 60.9125 206.221 61.437 206.543 62.1165C206.878 62.784 207.045 63.5707 207.045 64.4766C207.045 65.3945 206.878 66.1931 206.543 66.8726C206.221 67.5401 205.761 68.0586 205.164 68.4281C204.567 68.7857 203.856 68.9645 203.032 68.9645ZM203.032 68.0526C203.916 68.0526 204.62 67.7427 205.146 67.1229C205.671 66.4911 205.934 65.609 205.934 64.4766C205.934 63.3442 205.671 62.4681 205.146 61.8483C204.62 61.2284 203.916 60.9185 203.032 60.9185C202.148 60.9185 201.444 61.2284 200.918 61.8483C200.405 62.4681 200.148 63.3442 200.148 64.4766C200.148 65.609 200.405 66.4911 200.918 67.1229C201.444 67.7427 202.148 68.0526 203.032 68.0526Z" fill="white"/>
<path d="M211.163 68.8215V60.1497H212.238V61.7231C212.488 61.1748 212.853 60.7576 213.33 60.4715C213.808 60.1854 214.417 60.0185 215.158 59.9709L215.605 59.9351L215.713 60.8827L214.943 60.9721C214.095 61.0437 213.438 61.3238 212.972 61.8125C212.506 62.2893 212.273 62.933 212.273 63.7435V68.8215H211.163Z" fill="white"/>
<path d="M222.752 68.9645C221.414 68.9645 220.358 68.5712 219.581 67.7844C218.817 66.9858 218.435 65.8951 218.435 64.5124C218.435 63.6184 218.608 62.8317 218.954 62.1522C219.301 61.4728 219.778 60.9423 220.387 60.5609C221.008 60.1795 221.719 59.9887 222.519 59.9887C223.678 59.9887 224.579 60.3642 225.224 61.1152C225.869 61.8661 226.192 62.8972 226.192 64.2084V64.7091H219.51C219.545 65.7819 219.838 66.6103 220.387 67.1944C220.949 67.7666 221.725 68.0526 222.716 68.0526C223.254 68.0526 223.755 67.9692 224.221 67.8023C224.699 67.6354 225.164 67.3553 225.618 66.962L226.048 67.7844C225.666 68.154 225.176 68.446 224.579 68.6606C223.982 68.8632 223.373 68.9645 222.752 68.9645ZM222.537 60.8649C221.629 60.8649 220.919 61.1509 220.405 61.7231C219.904 62.2833 219.611 63.0105 219.528 63.9045H225.206C225.182 62.9509 224.944 62.2059 224.49 61.6695C224.036 61.1331 223.385 60.8649 222.537 60.8649Z" fill="white"/>
<path fill-rule="evenodd" clip-rule="evenodd" d="M143.892 43.0664V43.6269H133.172V43.0664H133.852C134.447 43.0664 134.926 42.9604 135.289 42.7482C135.551 42.6069 135.752 42.3644 135.893 42.021C136.004 41.7786 136.06 41.1423 136.06 40.1121V26.5981C136.06 25.5477 136.004 24.8913 135.893 24.6286C135.782 24.3661 135.558 24.1362 135.221 23.9392C134.883 23.7423 134.427 23.6438 133.852 23.6438H133.172V23.0833H143.892V23.6438H143.212C142.617 23.6438 142.138 23.7499 141.775 23.962C141.513 24.1036 141.306 24.346 141.155 24.6892C141.044 24.9316 140.989 25.5679 140.989 26.5981V40.1121C140.989 41.1627 141.047 41.8191 141.163 42.0816C141.279 42.3444 141.505 42.574 141.843 42.771C142.181 42.9679 142.637 43.0664 143.212 43.0664H143.892Z" fill="white"/>
<path fill-rule="evenodd" clip-rule="evenodd" d="M152.961 23.0833L163.192 35.7991V26.9842C163.192 25.7545 163.013 24.9229 162.657 24.4894C162.167 23.905 161.347 23.6226 160.195 23.6427V23.0833H167.046V23.6427C166.169 23.7538 165.58 23.8973 165.279 24.0737C164.978 24.2501 164.744 24.5373 164.576 24.9354C164.408 25.3338 164.324 26.0165 164.324 26.9842V44.0548H163.804L149.78 26.9842V40.0176C149.78 41.197 150.053 41.9934 150.599 42.4067C151.144 42.8201 151.768 43.0266 152.472 43.0266H152.961V43.5859H145.605V43.0266C146.747 43.0166 147.542 42.7846 147.991 42.3311C148.44 41.8774 148.664 41.1063 148.664 40.0176V25.5479L148.22 25.0035C147.782 24.4591 147.395 24.1016 147.058 23.93C146.722 23.7587 146.238 23.663 145.605 23.6427V23.0833H152.961Z" fill="white"/>
<path fill-rule="evenodd" clip-rule="evenodd" d="M187.63 23.0833V28.6433H187.085C186.762 27.3609 186.404 26.439 186.01 25.8784C185.617 25.3179 185.076 24.871 184.39 24.5377C184.007 24.3559 183.336 24.265 182.377 24.265H180.848V40.1121C180.848 41.1626 180.906 41.819 181.022 42.0816C181.138 42.3444 181.365 42.574 181.703 42.7709C182.041 42.9679 182.503 43.0664 183.088 43.0664H183.77V43.6269H173.022V43.0664H173.703C174.298 43.0664 174.778 42.9603 175.141 42.7482C175.403 42.6069 175.61 42.3644 175.762 42.021C175.872 41.7786 175.928 41.1423 175.928 40.1121V24.265H174.444C173.062 24.265 172.057 24.558 171.432 25.1436C170.554 25.9618 169.999 27.1283 169.767 28.6433H169.191V23.0833H187.63Z" fill="white"/>
<path fill-rule="evenodd" clip-rule="evenodd" d="M197.255 24.265V32.6279H197.668C198.984 32.6279 199.938 32.2189 200.529 31.4007C201.121 30.5827 201.498 29.3758 201.662 27.7799H202.243V38.5365H201.662C201.539 37.3649 201.282 36.4055 200.889 35.6579C200.496 34.9106 200.04 34.4081 199.52 34.1505C198.999 33.8929 198.244 33.7641 197.255 33.7641V39.5515C197.255 40.6828 197.303 41.3748 197.4 41.6272C197.497 41.8797 197.678 42.0869 197.943 42.2483C198.208 42.41 198.637 42.4907 199.229 42.4907H200.468C202.406 42.4907 203.96 42.0464 205.128 41.1574C206.296 40.2689 207.135 38.9152 207.645 37.0973H208.211L207.278 43.6269H189.344V43.0664H190.032C190.634 43.0664 191.119 42.9604 191.486 42.7482C191.751 42.6069 191.955 42.3644 192.098 42.021C192.21 41.7786 192.266 41.1423 192.266 40.1121V26.5981C192.266 25.669 192.241 25.0983 192.19 24.8862C192.088 24.5327 191.899 24.26 191.624 24.068C191.236 23.7854 190.706 23.6438 190.032 23.6438H189.344V23.0833H206.711V29.1585H206.13C205.834 27.6739 205.418 26.6083 204.883 25.9618C204.347 25.3156 203.59 24.8407 202.61 24.5377C202.039 24.3559 200.968 24.265 199.397 24.265H197.255Z" fill="white"/>
<path fill-rule="evenodd" clip-rule="evenodd" d="M218.518 24.1892V33.1884H219.389C220.806 33.1884 221.865 33.0596 222.568 32.802C223.271 32.5445 223.824 32.08 224.227 31.4083C224.629 30.7366 224.83 29.8606 224.83 28.7797C224.83 27.2142 224.461 26.0578 223.722 25.3102C222.983 24.563 221.794 24.1892 220.154 24.1892H218.518ZM218.518 34.264V40.0211C218.518 41.1323 218.587 41.8316 218.725 42.1194C218.862 42.4073 219.104 42.6372 219.451 42.8088C219.797 42.9807 220.444 43.0663 221.392 43.0663V43.6269H210.785V43.0663C211.743 43.0663 212.392 42.978 212.734 42.8012C213.075 42.6246 213.315 42.3947 213.452 42.1118C213.59 41.8292 213.658 41.1323 213.658 40.0211V26.689C213.658 25.578 213.59 24.8785 213.452 24.5907C213.315 24.3028 213.072 24.0732 212.726 23.9013C212.38 23.7297 211.733 23.6437 210.785 23.6437V23.0833H220.413C222.92 23.0833 224.754 23.2551 225.915 23.5983C227.077 23.9418 228.024 24.5755 228.758 25.4997C229.491 26.4239 229.858 27.507 229.858 28.7494C229.858 30.2644 229.308 31.5169 228.208 32.5067C227.505 33.133 226.522 33.6027 225.258 33.9156L230.24 40.8696C230.892 41.7686 231.356 42.3292 231.631 42.5512C232.049 42.8643 232.533 43.036 233.083 43.0663V43.6269H226.557L219.878 34.264H218.518Z" fill="white"/>
<path fill-rule="evenodd" clip-rule="evenodd" d="M241.263 24.265V32.7037H241.848C242.748 32.7037 243.482 32.5674 244.052 32.2946C244.622 32.0219 245.104 31.5624 245.499 30.916C245.893 30.2697 246.151 29.3959 246.271 28.2949H246.796V38.6122H246.271C246.081 36.6631 245.564 35.3777 244.719 34.7565C243.874 34.1354 242.917 33.8248 241.848 33.8248H241.263V40.1121C241.263 41.1627 241.321 41.8191 241.436 42.0816C241.55 42.3444 241.775 42.574 242.11 42.771C242.445 42.9679 242.897 43.0664 243.467 43.0664H244.142V43.6269H233.512V43.0664H234.186C234.776 43.0664 235.251 42.9604 235.611 42.7482C235.871 42.6069 236.071 42.3644 236.21 42.021C236.32 41.7786 236.375 41.1423 236.375 40.1121V26.5981C236.375 25.5477 236.32 24.8913 236.21 24.6286C236.101 24.3661 235.878 24.1362 235.543 23.9392C235.208 23.7423 234.756 23.6438 234.186 23.6438H233.512V23.0833H250.664V28.9768H250.049C249.909 27.5931 249.552 26.5678 248.977 25.9012C248.402 25.2346 247.57 24.765 246.481 24.4923C245.881 24.3407 244.772 24.265 243.152 24.265H241.263Z" fill="white"/>
<path fill-rule="evenodd" clip-rule="evenodd" d="M271.676 36.4154L270.909 43.6269H252.809V43.0664H253.485C254.076 43.0664 254.553 42.9603 254.913 42.7482C255.174 42.6069 255.374 42.3644 255.515 42.0209C255.625 41.7786 255.68 41.1423 255.68 40.112V26.5981C255.68 25.5477 255.625 24.8913 255.515 24.6286C255.404 24.366 255.181 24.1362 254.846 23.9392C254.51 23.7422 254.056 23.6438 253.485 23.6438H252.809V23.0833H263.678V23.6438H262.791C262.199 23.6438 261.724 23.7499 261.363 23.9619C261.102 24.1035 260.897 24.3459 260.746 24.6892C260.636 24.9315 260.581 25.5678 260.581 26.5981V39.6878C260.581 40.7385 260.641 41.4074 260.761 41.6953C260.882 41.9831 261.117 42.1977 261.468 42.3391C261.718 42.4301 262.325 42.4755 263.287 42.4755H264.986C266.068 42.4755 266.97 42.2838 267.692 41.8998C268.414 41.516 269.037 40.91 269.564 40.0817C270.09 39.2537 270.588 38.0315 271.06 36.4154H271.676Z" fill="white"/>
<path fill-rule="evenodd" clip-rule="evenodd" d="M273.82 23.0833H284.356V23.6423H283.829C283.037 23.6423 282.492 23.7253 282.196 23.8916C281.9 24.0577 281.689 24.287 281.564 24.5791C281.439 24.8713 281.376 25.6015 281.376 26.7698V36.8024C281.376 38.6358 281.514 39.8495 281.79 40.4437C282.066 41.0381 282.52 41.5315 283.152 41.9243C283.784 42.3172 284.582 42.5136 285.545 42.5136C286.649 42.5136 287.589 42.2643 288.367 41.7656C289.145 41.2671 289.727 40.5796 290.113 39.7034C290.499 38.827 290.693 37.3009 290.693 35.1252V26.7698C290.693 25.8534 290.597 25.1986 290.407 24.8057C290.216 24.4128 289.975 24.1409 289.684 23.9898C289.233 23.7582 288.596 23.6423 287.773 23.6423V23.0833H294.832V23.6423H294.41C293.838 23.6423 293.362 23.7582 292.98 23.9898C292.599 24.2217 292.323 24.5692 292.153 25.0323C292.022 25.3548 291.957 25.9339 291.957 26.7698V34.5511C291.957 36.9586 291.799 38.6962 291.483 39.7638C291.167 40.8316 290.397 41.8137 289.173 42.71C287.948 43.6064 286.278 44.0548 284.16 44.0548C282.394 44.0548 281.03 43.818 280.066 43.3446C278.752 42.7001 277.824 41.8741 277.282 40.8667C276.74 39.8595 276.469 38.5047 276.469 36.8024V26.7698C276.469 25.5914 276.404 24.8586 276.274 24.5715C276.143 24.2844 275.918 24.0554 275.596 23.884C275.275 23.7129 274.683 23.6324 273.82 23.6423V23.0833Z" fill="white"/>
<path fill-rule="evenodd" clip-rule="evenodd" d="M308.943 31.5825L314.58 39.9908C315.514 41.3846 316.18 42.2307 316.577 42.5284C316.974 42.8265 317.444 43.0057 317.986 43.0664V43.6269H308.024V43.0664C308.818 43.0057 309.33 42.8845 309.561 42.7027C309.792 42.5209 309.908 42.2989 309.908 42.0361C309.908 41.8543 309.873 41.6929 309.802 41.5513C309.662 41.2483 309.31 40.6828 308.747 39.8545L305.763 35.4155L302.643 39.2485C301.709 40.4101 301.242 41.1978 301.242 41.6119C301.242 41.9049 301.362 42.1777 301.603 42.4301C301.844 42.6826 302.201 42.8643 302.673 42.9754C302.884 43.036 303.316 43.0664 303.97 43.0664V43.6269H296.117V43.0664C297.011 42.9353 297.715 42.6928 298.227 42.3391C298.9 41.8747 299.84 40.905 301.046 39.4302L305.1 34.461L299.9 26.7798C299.046 25.5174 298.559 24.8155 298.438 24.674C298.167 24.3407 297.901 24.1035 297.639 23.9619C297.378 23.8207 297.016 23.7145 296.554 23.6437V23.0833H306.698V23.6437H306.185C305.602 23.6437 305.195 23.7373 304.964 23.9241C304.733 24.1111 304.618 24.3459 304.618 24.6285C304.618 24.8508 304.653 25.0428 304.723 25.2042L305.763 26.7798L308.295 30.6583L310.45 28.007C311.556 26.6435 312.108 25.6891 312.108 25.1436C312.108 24.8709 312.03 24.6186 311.875 24.3862C311.719 24.154 311.495 23.9721 311.204 23.8407C310.913 23.7096 310.46 23.6437 309.848 23.6437V23.0833H317.368V23.6437C316.775 23.6539 316.298 23.7271 315.936 23.8635C315.575 23.9998 315.188 24.255 314.776 24.6285C314.515 24.8709 313.862 25.6235 312.817 26.8859L308.943 31.5825Z" fill="white"/>
<path fill-rule="evenodd" clip-rule="evenodd" d="M331.698 27.4453C332.245 27.4453 332.645 27.3921 332.897 27.2856C333.15 27.1792 333.343 27.0299 333.477 26.8379C333.612 26.6458 333.679 26.4272 333.679 26.1818C333.679 25.807 333.548 25.4923 333.286 25.2377C333.024 24.9832 332.69 24.8559 332.282 24.8559C332.106 24.8559 331.911 24.893 331.698 24.9669V27.4453ZM330.051 24.5505H332.734C333.406 24.5505 333.918 24.7021 334.27 25.0052C334.622 25.3083 334.798 25.6751 334.798 26.1054C334.798 26.4572 334.679 26.7662 334.44 27.0323C334.201 27.2985 333.807 27.5033 333.255 27.6467L334.708 29.7153C334.884 29.9607 335.041 30.1296 335.18 30.2221C335.268 30.2776 335.391 30.3124 335.549 30.3263V30.5553H334.27L332.226 27.7437H331.698V29.8888C331.726 30.0417 331.792 30.1527 331.896 30.2221C332.001 30.2916 332.208 30.3263 332.518 30.3263V30.5553H329.967V30.3263C330.19 30.3263 330.347 30.2997 330.44 30.2464C330.533 30.1933 330.6 30.1157 330.642 30.0139C330.674 29.9398 330.69 29.7247 330.69 29.3682V25.7375C330.69 25.3951 330.683 25.1938 330.669 25.1336C330.637 25.0271 330.578 24.9451 330.492 24.8872C330.407 24.8293 330.259 24.8004 330.051 24.8004V24.5505ZM332.775 23.0787C332.02 23.0787 331.283 23.2731 330.565 23.6619C329.847 24.0507 329.286 24.6049 328.883 25.3245C328.48 26.0442 328.279 26.7951 328.279 27.5772C328.279 28.3547 328.477 29.0999 328.873 29.8125C329.269 30.5253 329.824 31.0807 330.537 31.4786C331.251 31.8767 331.997 32.0756 332.775 32.0756C333.554 32.0756 334.301 31.8767 335.017 31.4786C335.733 31.0807 336.289 30.5253 336.685 29.8125C337.081 29.0999 337.279 28.3547 337.279 27.5772C337.279 26.7951 337.078 26.0442 336.675 25.3245C336.271 24.6049 335.711 24.0507 334.993 23.6619C334.274 23.2731 333.535 23.0787 332.775 23.0787ZM332.775 22.6553C333.605 22.6553 334.413 22.8669 335.201 23.2905C335.989 23.714 336.604 24.3203 337.047 25.1092C337.489 25.8984 337.71 26.7211 337.71 27.5772C337.71 28.4287 337.492 29.2456 337.057 30.0277C336.621 30.8099 336.012 31.4173 335.229 31.85C334.446 32.2829 333.628 32.4991 332.775 32.4991C331.923 32.4991 331.106 32.2829 330.326 31.85C329.545 31.4173 328.936 30.8099 328.501 30.0277C328.065 29.2456 327.848 28.4287 327.848 27.5772C327.848 26.7211 328.069 25.8984 328.512 25.1092C328.954 24.3203 329.569 23.714 330.357 23.2905C331.144 22.8669 331.951 22.6553 332.775 22.6553Z" fill="white"/>
<path fill-rule="evenodd" clip-rule="evenodd" d="M96.7341 41.8578V37.5494L95.4409 37.6194C95.0129 34.6406 94.2034 31.7392 93.0176 28.949C92.6732 28.1387 92.2998 27.3445 91.8985 26.5668C96.6062 28.5332 97.3941 35.0486 97.3941 35.0486H101.652L100.062 26.4694C103.575 31.1439 105.52 36.3938 105.694 41.8578H96.7341ZM92.5295 66.2521C87.9998 69.6198 82.6776 72.188 76.8731 73.8619C80.0191 72.2153 82.8883 70.1103 85.4305 67.58C87.289 65.7305 88.9187 63.7063 90.3077 61.528H92.5281V60.2328C92.5281 60.2328 91.9553 60.2326 91.1719 60.0985C91.8572 58.9004 92.4735 57.6602 93.0176 56.3797C94.5387 52.8003 95.4415 49.0377 95.7125 45.1635L96.7341 45.219V43.4709H105.694C105.42 52.0624 100.77 60.125 92.5295 66.2521ZM78.2337 67.4629C79.5144 65.6447 80.6398 63.6603 81.6011 61.5275L88.1578 61.528C84.1549 67.3478 78.3552 71.8515 71.5609 74.24C74.0347 72.5174 76.2744 70.244 78.2337 67.4629ZM66.006 74.8977C67.5888 73.0865 69.0014 70.5169 70.2046 67.2611C70.8574 65.4945 71.4314 63.5728 71.922 61.5272L79.6385 61.5275C76.39 68.341 71.4347 73.3505 65.6644 75.2742C65.779 75.1526 65.8929 75.0276 66.006 74.8977ZM61.2052 76.0505V61.5277L69.4408 61.528V60.2328C69.4408 60.2328 63.6948 60.2328 63.6948 55.9621V43.4709H72.1933C72.1184 52.244 70.8254 60.4497 68.5326 66.6542C66.5105 72.1263 63.8783 75.4793 61.2052 76.0505ZM52.2499 66.6542C51.6639 65.0679 51.1432 63.3509 50.6915 61.5275L59.5775 61.5277V76.0505C56.9045 75.4793 54.2722 72.1263 52.2499 66.6542ZM37.0878 43.4709H46.8088C46.8589 49.4358 47.4638 55.1551 48.5571 60.1971C48.1811 60.2328 47.9451 60.2328 47.9451 60.2328V61.5272H48.8607C49.3513 63.5728 49.9253 65.4945 50.5781 67.2611C51.7813 70.5169 53.1938 73.0865 54.7766 74.8977C54.8898 75.0276 55.0038 75.1526 55.1182 75.2742C44.9717 71.8918 37.3443 58.9685 37.0878 43.4709ZM26.7731 43.4709H35.3071C35.3772 47.9087 36.0258 52.2167 37.2386 56.2869C38.4848 60.4693 40.2714 64.2293 42.5489 67.4629C44.5081 70.244 46.7479 72.5177 49.2216 74.24C36.3947 69.731 27.1126 57.6831 26.7731 43.4709ZM28.253 66.2521C20.0128 60.125 15.3629 52.0624 15.0887 43.4709H24.992C25.0921 47.9423 26.0233 52.2812 27.7651 56.3797C29.5481 60.5757 32.1009 64.3441 35.3523 67.58C37.8943 70.1103 40.7635 72.2153 43.9096 73.8619C38.105 72.188 32.7827 69.6198 28.253 66.2521ZM28.253 19.0768C32.7827 15.7089 38.105 13.1407 43.9096 11.4668C40.7635 13.1133 37.8943 15.2184 35.3523 17.7486C32.1009 20.9846 29.5481 24.7529 27.7651 28.949C26.0233 33.0476 25.0921 37.3864 24.992 41.8578H15.0887C15.3629 33.2664 20.0128 25.2036 28.253 19.0768ZM42.5489 17.8661C40.2714 21.0993 38.4848 24.8592 37.2386 29.0417C36.0258 33.1122 35.3772 37.4199 35.3071 41.8578H26.7731C27.1126 27.6454 36.3947 15.5977 49.2218 11.0887C46.7481 12.8112 44.5081 15.0848 42.5489 17.8661ZM54.7766 10.4309C53.1938 12.2424 51.7813 14.8118 50.5781 18.0678C49.9254 19.8341 49.3514 21.7557 48.8609 23.8008L47.9451 23.8006V25.0961C47.9451 25.0961 48.1809 25.0961 48.5571 25.1316C47.4638 30.1738 46.8589 35.893 46.8088 41.8578H37.0878C37.3443 26.3604 44.9717 13.4368 55.1182 10.0546C55.0038 10.176 54.8898 10.3012 54.7766 10.4309ZM53.6911 41.8578H48.5893C48.6392 35.9961 49.2333 30.388 50.3057 25.4606C51.8909 25.9241 53.6911 26.9763 53.6911 29.3669V41.8578ZM48.5893 43.4709H53.6911V55.9621C53.6911 58.3524 51.8909 59.4047 50.3057 59.8682C49.2333 54.9409 48.6392 49.3325 48.5893 43.4709ZM59.5775 9.2782V23.8012L50.6917 23.8008C51.1435 21.9774 51.664 20.2606 52.2499 18.6744C54.2722 13.2023 56.9044 9.84928 59.5775 9.2782ZM68.5326 18.6744C70.8254 24.8789 72.1184 33.0846 72.1933 41.8578H63.6948V29.3669C63.6948 25.0961 69.4408 25.0961 69.4408 25.0961V23.8016L61.2052 23.8012V9.2782C63.8783 9.8494 66.5105 13.2023 68.5326 18.6744ZM79.6385 23.801L71.9218 23.8006C71.4311 21.7557 70.8572 19.8341 70.2046 18.0678C69.0014 14.8118 67.5888 12.2424 66.006 10.4309C65.8929 10.3012 65.779 10.176 65.6645 10.0546C71.4347 11.9782 76.39 16.9874 79.6385 23.801ZM88.1581 23.8012L81.601 23.801C80.6396 21.6686 79.5144 19.684 78.2337 17.8661C76.2744 15.0848 74.0346 12.8112 71.5609 11.0887C78.3555 13.4773 84.1552 17.9812 88.1581 23.8012ZM86.7822 38.0881V29.3669C86.7822 26.6741 86.9277 25.4444 89.4824 25.8876C91.5727 29.465 93.0161 33.4612 93.6522 37.7163L86.7822 38.0881ZM86.7822 44.6805L93.9331 45.0674C93.5557 50.3381 91.947 55.2753 89.3922 59.595C88.0485 59.0305 86.7822 57.9669 86.7822 55.9621V44.6805ZM76.7784 43.4709V55.9621C76.7784 58.9706 73.9271 59.8595 72.2417 60.1224C73.3247 55.0988 73.924 49.4063 73.9738 43.4709H76.7784ZM76.7784 41.8578H73.9738C73.924 35.9226 73.3247 30.2302 72.2417 25.2064C73.9271 25.4692 76.7784 26.3583 76.7784 29.3669V41.8578ZM92.5295 19.0768C94.5064 20.5468 96.276 22.1283 97.8288 23.8016L90.3079 23.8012C88.9191 21.6229 87.2892 19.5986 85.4305 17.7486C82.8883 15.2185 80.0191 13.1133 76.8731 11.4668C82.6776 13.1407 87.9998 15.7089 92.5295 19.0768ZM107.475 41.8578C107.341 37.3516 106.087 32.982 103.742 28.8583C101.353 24.6601 97.9407 20.8943 93.5982 17.6654C89.2744 14.4505 84.2438 11.9279 78.646 10.1674C73.1106 8.42656 67.247 7.50768 61.2052 7.43186V0H59.5775V7.43186C53.5356 7.50768 47.6722 8.42656 42.1366 10.1674C36.5388 11.9279 31.5082 14.4505 27.1845 17.6654C22.8419 20.8943 19.429 24.6601 17.041 28.8583C14.6952 32.982 13.4413 37.3516 13.3076 41.8578H0V43.4709H13.3076C13.4413 47.9773 14.6952 52.3465 17.041 56.4704C19.429 60.6687 22.8419 64.4344 27.1845 67.6634C31.5082 70.8783 36.5388 73.4008 42.1366 75.1613C47.6722 76.902 53.5356 77.821 59.5775 77.897V85.3287H61.2052V77.897C67.247 77.821 73.1106 76.902 78.646 75.1613C84.2438 73.4008 89.2744 70.8783 93.5982 67.6634C97.9407 64.4344 101.353 60.6687 103.742 56.4704C106.087 52.3465 107.341 47.9773 107.475 43.4709H120.783V41.8578H107.475Z" fill="white"/>
</svg>
