<svg width="80" height="80" viewBox="0 0 80 80" fill="none" xmlns="http://www.w3.org/2000/svg">
<g clip-path="url(#clip0_211_3475)">
<rect width="80" height="80" fill="white"/>
<rect width="1000" height="1000" fill="white"/>
<path fill-rule="evenodd" clip-rule="evenodd" d="M64.0457 39.446V36.5881L63.1895 36.6345C62.9062 34.6585 62.3702 32.7339 61.5851 30.8831C61.3571 30.3456 61.1099 29.8188 60.8442 29.3029C63.9611 30.6073 64.4827 34.9292 64.4827 34.9292H67.3017L66.2494 29.2383C68.5747 32.3391 69.8624 35.8215 69.9778 39.446H64.0457ZM61.2619 55.6276C58.2629 57.8616 54.7392 59.5651 50.8961 60.6755C52.979 59.5832 54.8787 58.1869 56.5618 56.5085C57.7923 55.2816 58.8713 53.9389 59.7909 52.4939H61.261V51.6348C61.261 51.6348 60.8818 51.6347 60.3631 51.5457C60.8168 50.751 61.2249 49.9283 61.5851 49.0789C62.5922 46.7046 63.1899 44.2087 63.3693 41.6388L64.0457 41.6756V40.516H69.9778C69.7963 46.2151 66.7177 51.5633 61.2619 55.6276ZM51.7969 56.4308C52.6449 55.2247 53.39 53.9084 54.0265 52.4936L58.3675 52.4939C55.7173 56.3544 51.8774 59.3419 47.379 60.9263C49.0169 59.7836 50.4998 58.2756 51.7969 56.4308ZM43.7013 61.3626C44.7492 60.1612 45.6844 58.4566 46.4811 56.2969C46.9132 55.1251 47.2933 53.8503 47.6181 52.4934L52.7271 52.4936C50.5763 57.0133 47.2955 60.3363 43.4751 61.6123C43.551 61.5317 43.6264 61.4487 43.7013 61.3626ZM40.5227 62.1273V52.4938L45.9754 52.4939V51.6348C45.9754 51.6348 42.1711 51.6348 42.1711 48.8019V40.516H47.7977C47.7482 46.3355 46.8921 51.7787 45.3741 55.8943C44.0353 59.5242 42.2926 61.7484 40.5227 62.1273ZM34.5936 55.8943C34.2056 54.8421 33.8609 53.7031 33.5619 52.4936L39.445 52.4938V62.1273C37.6753 61.7484 35.9325 59.5242 34.5936 55.8943ZM24.5551 40.516H30.9912C31.0243 44.4728 31.4249 48.2666 32.1487 51.6111C31.8997 51.6348 31.7435 51.6348 31.7435 51.6348V52.4934H32.3497C32.6745 53.8503 33.0545 55.1251 33.4868 56.2969C34.2833 58.4566 35.2186 60.1612 36.2665 61.3625C36.3414 61.4487 36.4169 61.5317 36.4926 61.6123C29.7749 59.3686 24.7249 50.7961 24.5551 40.516ZM17.726 40.516H23.3761C23.4225 43.4598 23.852 46.3175 24.6549 49.0174C25.48 51.7917 26.6629 54.2858 28.1707 56.4308C29.4679 58.2756 30.9509 59.7838 32.5887 60.9263C24.0962 57.9353 17.9507 49.9435 17.726 40.516ZM18.7058 55.6276C13.2501 51.5633 10.1715 46.2151 9.98992 40.516H16.5467C16.613 43.4821 17.2295 46.3602 18.3827 49.0789C19.5632 51.8623 21.2534 54.362 23.4061 56.5085C25.0891 58.1869 26.9887 59.5832 29.0716 60.6755C25.2286 59.5651 21.7047 57.8616 18.7058 55.6276ZM18.7058 24.3345C21.7047 22.1004 25.2286 20.3969 29.0716 19.2865C26.9887 20.3787 25.0891 21.7751 23.4061 23.4534C21.2534 25.6 19.5632 28.0997 18.3827 30.8831C17.2295 33.6018 16.613 36.4799 16.5467 39.446H9.98992C10.1715 33.747 13.2501 28.3987 18.7058 24.3345ZM28.1707 23.5314C26.6629 25.6761 25.48 28.1702 24.6549 30.9446C23.852 33.6447 23.4225 36.5022 23.3761 39.446H17.726C17.9507 30.0184 24.0962 22.0267 32.5888 19.0357C30.951 20.1783 29.4679 21.6865 28.1707 23.5314ZM36.2665 18.5994C35.2186 19.801 34.2833 21.5054 33.4868 23.6652C33.0546 24.8369 32.6746 26.1115 32.3498 27.4681L31.7435 27.468V28.3274C31.7435 28.3274 31.8996 28.3274 32.1487 28.3509C31.4249 31.6955 31.0243 35.4893 30.9912 39.446H24.5551C24.7249 29.166 29.7749 20.5933 36.4926 18.3498C36.4169 18.4303 36.3414 18.5134 36.2665 18.5994ZM35.5478 39.446H32.17C32.2031 35.5577 32.5964 31.8376 33.3064 28.5691C34.356 28.8766 35.5478 29.5746 35.5478 31.1603V39.446ZM32.17 40.516H35.5478V48.8019C35.5478 50.3874 34.356 51.0855 33.3064 51.393C32.5964 48.1245 32.2031 44.4043 32.17 40.516ZM39.445 17.8347V27.4684L33.5619 27.4681C33.8611 26.2586 34.2057 25.1198 34.5936 24.0676C35.9325 20.4377 37.6753 18.2136 39.445 17.8347ZM45.3741 24.0676C46.8921 28.1832 47.7482 33.6264 47.7977 39.446H42.1711V31.1603C42.1711 28.3274 45.9754 28.3274 45.9754 28.3274V27.4687L40.5227 27.4684V17.8347C42.2926 18.2136 44.0353 20.4377 45.3741 24.0676ZM52.7271 27.4683L47.618 27.468C47.2931 26.1115 46.9132 24.8369 46.4811 23.6652C45.6844 21.5054 44.7492 19.801 43.7013 18.5994C43.6264 18.5134 43.551 18.4303 43.4751 18.3498C47.2955 19.6257 50.5763 22.9486 52.7271 27.4683ZM58.3677 27.4684L54.0264 27.4683C53.3899 26.0537 52.6449 24.7373 51.7969 23.5314C50.4998 21.6865 49.0168 20.1783 47.379 19.0357C51.8776 20.6202 55.7175 23.6077 58.3677 27.4684ZM57.4568 36.9454V31.1603C57.4568 29.3741 57.5531 28.5584 59.2445 28.8523C60.6285 31.2254 61.5841 33.8762 62.0053 36.6988L57.4568 36.9454ZM57.4568 41.3184L62.1912 41.575C61.9414 45.0713 60.8763 48.3463 59.1848 51.2117C58.2952 50.8373 57.4568 50.1318 57.4568 48.8019V41.3184ZM50.8334 40.516V48.8019C50.8334 50.7975 48.9457 51.3872 47.8298 51.5616C48.5469 48.2292 48.9436 44.4532 48.9766 40.516H50.8334ZM50.8334 39.446H48.9766C48.9436 35.5089 48.5469 31.733 47.8298 28.4005C48.9457 28.5748 50.8334 29.1646 50.8334 31.1603V39.446ZM61.2619 24.3345C62.5708 25.3096 63.7424 26.3587 64.7705 27.4687L59.7911 27.4684C58.8716 26.0235 57.7924 24.6806 56.5618 23.4534C54.8787 21.7752 52.979 20.3787 50.8961 19.2865C54.7392 20.3969 58.2629 22.1004 61.2619 24.3345ZM71.1571 39.446C71.0686 36.4568 70.2384 33.5584 68.6853 30.8229C67.1041 28.0381 64.8446 25.5402 61.9695 23.3983C59.1068 21.2657 55.7761 19.5924 52.07 18.4246C48.4051 17.2698 44.5229 16.6603 40.5227 16.61V11.6802H39.445V16.61C35.4449 16.6603 31.5628 17.2698 27.8978 18.4246C24.1916 19.5924 20.861 21.2657 17.9983 23.3983C15.1232 25.5402 12.8636 28.0381 11.2825 30.8229C9.72937 33.5584 8.8992 36.4568 8.81069 39.446H0V40.516H8.81069C8.8992 43.5053 9.72937 46.4036 11.2825 49.1391C12.8636 51.924 15.1232 54.4219 17.9983 56.5638C20.861 58.6964 24.1916 60.3697 27.8978 61.5374C31.5628 62.6921 35.4449 63.3017 39.445 63.3521V68.2818H40.5227V63.3521C44.5229 63.3017 48.4051 62.6921 52.07 61.5374C55.7761 60.3697 59.1068 58.6964 61.9695 56.5638C64.8446 54.4219 67.1041 51.924 68.6853 49.1391C70.2384 46.4036 71.0686 43.5053 71.1571 40.516H79.9677V39.446H71.1571Z" fill="#23578C"/>
</g>
<defs>
<clipPath id="clip0_211_3475">
<rect width="80" height="80" fill="white"/>
</clipPath>
</defs>
</svg>
