<svg width="109" height="111" viewBox="0 0 109 111" fill="none" xmlns="http://www.w3.org/2000/svg">
<g clip-path="url(#clip0_224_3338)">
<path d="M109 11H9V111H109V11Z" fill="url(#paint0_linear_224_3338)"/>
<path d="M49.5773 68.28C49.713 68.28 49.8395 68.3488 49.9132 68.4628L53.6754 74.2808C53.7173 74.3455 53.7395 74.421 53.7395 74.498V89.5622C53.7395 89.6201 53.7521 89.6774 53.7764 89.7299L56.5795 95.8H39.5195L42.3227 89.7299C42.347 89.6774 42.3595 89.6201 42.3595 89.5622V74.498C42.3595 74.421 42.3818 74.3455 42.4236 74.2808L46.1859 68.4628C46.2596 68.3488 46.3861 68.28 46.5218 68.28H49.5773ZM91.1642 26.22C92.7106 26.22 93.9642 27.4736 93.9642 29.02C93.9642 29.5032 93.8392 29.9781 93.6013 30.3987L78.1227 57.7587C77.6259 58.637 76.6948 59.18 75.6857 59.18H42.2981C41.289 59.18 40.3579 58.637 39.861 57.7587L24.3825 30.3987C24.1446 29.9781 24.0195 29.5032 24.0195 29.02C24.0195 27.4736 25.2731 26.22 26.8195 26.22H91.1642ZM79.7693 45.1H61.3995V54.38H74.5193L79.7693 45.1ZM56.5842 45.1H38.2144L43.4645 54.38H56.5842V45.1ZM87.7349 31.02H61.3995V40.3H82.4849L87.7349 31.02ZM56.5842 31.02H30.2489L35.4989 40.3H56.5842V31.02Z" fill="white"/>
</g>
<path d="M10 0C4.48 0 0 4.48 0 10C0 15.52 4.48 20 10 20C15.52 20 20 15.52 20 10C20 4.48 15.52 0 10 0ZM8 15L3 10L4.41 8.59L8 12.17L15.59 4.58L17 6L8 15Z" fill="white"/>
<defs>
<linearGradient id="paint0_linear_224_3338" x1="59" y1="11" x2="59" y2="111" gradientUnits="userSpaceOnUse">
<stop stop-color="#4379B2"/>
<stop offset="1" stop-color="#23588E"/>
</linearGradient>
<clipPath id="clip0_224_3338">
<rect width="100" height="100" fill="white" transform="translate(9 11)"/>
</clipPath>
</defs>
</svg>
