<svg width="109" height="111" viewBox="0 0 109 111" fill="none" xmlns="http://www.w3.org/2000/svg">
<g clip-path="url(#clip0_224_3339)">
<path d="M109 11H9V111H109V11Z" fill="url(#paint0_linear_224_3339)"/>
<path fill-rule="evenodd" clip-rule="evenodd" d="M35.367 66.26C44.7181 66.26 56.0006 69.4482 56.0006 79.987C56.0006 83.2913 55.0811 87.1383 53.064 90.34C52.6326 76.2403 42.3581 68.8105 22.2406 68.0506C27.0015 66.8569 31.377 66.26 35.367 66.26ZM40.1906 51.38C60.7131 51.38 63.7195 65.7485 78.3072 65.2176C81.9101 65.2176 85.1086 62.4303 85.1086 59.8792C85.1086 57.416 83.9689 54.9939 81.6895 52.6128C88.8248 56.3671 92.4152 61.2249 92.4606 67.1861C92.1745 72.9832 87.5203 77.56 80.6355 77.56C64.4017 77.56 52.4355 56.1845 38.1387 56.1845C30.1065 56.1845 23.9404 57.7113 19.6406 60.7651C26.3801 54.5273 33.2301 51.399 40.1906 51.38ZM96.3806 47.42C97.4852 47.42 98.3806 48.3155 98.3806 49.42C98.3806 50.5246 97.4852 51.42 96.3806 51.42C95.2761 51.42 94.3806 50.5246 94.3806 49.42C94.3806 48.3155 95.2761 47.42 96.3806 47.42ZM68.2775 31.66C74.5747 33.8386 77.7424 37.4347 77.7806 42.4483C77.7325 46.2814 74.7973 49.86 69.6711 49.86C59.9659 49.86 53.7346 42.7282 42.82 42.7282C36.6056 42.7282 30.7858 44.4686 25.3606 47.9496C31.5633 41.0668 38.1445 37.616 45.1042 37.597C53.4724 37.597 60.2671 42.3679 66.4934 42.1414C70.0959 42.1414 72.3571 40.4998 72.3571 37.9496C72.3571 36.1567 70.9972 34.0601 68.2775 31.66ZM87.4506 39.52C89.1682 39.52 90.5606 40.9124 90.5606 42.63C90.5606 44.3476 89.1682 45.74 87.4506 45.74C85.733 45.74 84.3406 44.3476 84.3406 42.63C84.3406 40.9124 85.733 39.52 87.4506 39.52Z" fill="white"/>
</g>
<path d="M10 0C4.48 0 0 4.48 0 10C0 15.52 4.48 20 10 20C15.52 20 20 15.52 20 10C20 4.48 15.52 0 10 0ZM8 15L3 10L4.41 8.59L8 12.17L15.59 4.58L17 6L8 15Z" fill="white"/>
<defs>
<linearGradient id="paint0_linear_224_3339" x1="59" y1="11" x2="59" y2="111" gradientUnits="userSpaceOnUse">
<stop stop-color="#4379B2"/>
<stop offset="1" stop-color="#23588E"/>
</linearGradient>
<clipPath id="clip0_224_3339">
<rect width="100" height="100" fill="white" transform="translate(9 11)"/>
</clipPath>
</defs>
</svg>
