<svg width="160" height="160" viewBox="0 0 160 160" fill="none" xmlns="http://www.w3.org/2000/svg">
<path d="M110.692 41.7674L81.4375 71.0216L52.1833 41.7674L44.6406 49.3097L73.8952 78.564L44.6406 107.819L52.1833 115.361L81.4375 86.1066L110.692 115.361L118.234 107.819L88.9799 78.564L118.234 49.3097L110.692 41.7674Z" fill="white"/>
<path d="M136.569 23.4315C121.566 8.42855 101.217 -1.58081e-07 80 0C58.7827 1.58081e-07 38.4344 8.42855 23.4315 23.4315C8.42855 38.4344 1.58081e-07 58.7827 0 80C-1.58081e-07 101.217 8.42855 121.566 23.4315 136.569C38.4344 151.571 58.7827 160 80 160C101.217 160 121.566 151.571 136.569 136.569C151.571 121.566 160 101.217 160 80C160 58.7827 151.571 38.4344 136.569 23.4315ZM80 149.333C41.7697 149.333 10.6668 118.23 10.6668 80C10.6668 41.7697 41.7697 10.6668 80 10.6668C118.23 10.6668 149.333 41.7697 149.333 80C149.333 118.23 118.23 149.333 80 149.333Z" fill="white"/>
</svg>
